<svg width="51" height="51" viewBox="0 0 51 51" fill="none" xmlns="http://www.w3.org/2000/svg">
<path d="M44.6805 40.9957C47.378 37.6004 48.5238 34.4449 49.3644 31.51C50.2227 28.5133 50.1632 26.2395 50.117 24.4756C50.1092 24.1791 50.1018 23.8971 50.0993 23.6284C50.1526 24.2888 50.1797 24.9565 50.1797 25.6306C50.1797 39.1887 39.1887 50.1797 25.6306 50.1797C12.0725 50.1797 1.08142 39.1887 1.08142 25.6306C1.08142 12.0725 12.0725 1.08142 25.6306 1.08142C37.1811 1.08142 46.8684 9.05845 49.4841 19.8039C49.9409 21.6807 49.2367 23.6115 47.3758 24.1292V24.1292L47.3743 24.1296C47.3116 24.1471 47.2516 24.1638 47.1947 24.1799L46.2423 24.3544V24.3544C45.9857 24.425 45.7294 24.2398 45.7073 23.9746C44.8458 13.6641 36.2044 5.56474 25.6713 5.56474C15.0295 5.56474 6.31872 13.8321 5.61116 24.2944C5.59397 24.5485 5.43989 24.7755 5.20676 24.878V24.878L4.25429 25.4016L3.46057 25.9252L2.71282 26.4732C2.57635 26.5732 2.44186 26.6758 2.30946 26.7812C2.08685 26.9583 1.74295 27.2324 1.635 27.3214C1.52146 27.4149 1.36505 27.5462 1.2795 27.6181C1.24084 27.6506 1.22192 27.7008 1.22935 27.7508V27.7508C1.76896 31.3787 2.33213 35.1651 6.10818 40.3436C9.06638 44.4006 14.0797 48.1786 20.5256 49.4731C23.1716 50.3426 26.2353 50.1644 29.4153 49.7992C34.909 49.1683 40.0366 46.1212 43.2781 42.626C43.7877 42.0765 44.2536 41.5331 44.6805 40.9957ZM44.6805 40.9957L44.3028 39.9396C44.0478 39.2267 43.2781 38.6781 43.2781 37.9211V37.9211C43.2781 37.8682 43.1597 37.8133 43.002 37.7643C42.5983 37.6389 42.1863 37.5356 41.8011 37.3617V37.3617C41.171 37.0771 40.4874 36.9299 39.796 36.9299H39.7052H39.4162H39.211C38.6192 36.9299 38.0292 36.8404 37.4751 36.6326V36.6326C37.0786 36.4839 36.9795 36.4839 36.4001 36.2857V36.2857C35.9578 36.1343 35.511 35.9766 35.0594 35.856L34.8126 35.7901C34.5768 35.691 34.0456 35.4828 33.8077 35.4432C33.7982 35.4416 33.7888 35.4398 33.7797 35.4379C33.4851 35.3767 33.3028 35.0869 33.0901 34.8742V34.8742C32.8118 34.5959 32.4778 34.3794 32.1101 34.2389L31.8314 34.1324C31.5254 34.0155 31.2068 33.9348 30.8821 33.8919L28.701 33.6043M28.701 33.6043C28.193 34.1628 26.6373 33.4879 25.9229 33.0807L24.7324 32.5571L23.4624 31.859L22.748 31.51L21.1606 30.6373L20.8989 30.5222C20.809 30.4827 20.7238 30.4336 20.6447 30.3756V30.3756C20.5655 30.3176 20.4803 30.2684 20.3905 30.2289L20.1288 30.1138V30.1138C19.3389 29.6506 18.4753 29.2959 17.5888 29.0666V29.0666V29.0666C17.4264 29.0156 17.2949 28.894 17.238 28.7335C16.9103 27.81 16.7319 26.8158 16.7319 25.78C16.7319 20.9029 20.6856 16.9493 25.5626 16.9493C30.4397 16.9493 34.3933 20.9029 34.3933 25.78C34.3933 27.6706 33.7992 29.4224 32.7875 30.8589C31.9782 32.008 30.7107 32.7098 29.4153 33.2552V33.2552L28.701 33.6043ZM25.6306 1C38.2247 1 48.6112 10.4524 50.0826 22.6498C50.0838 22.6595 50.0964 22.6628 50.1019 22.6547V22.6547C50.1082 22.6455 50.1229 22.6505 50.1221 22.6616C50.1171 22.732 50.113 22.8034 50.1097 22.876C50.1095 22.8794 50.1096 22.8828 50.11 22.8862C50.2099 23.7872 50.2612 24.7029 50.2612 25.6306C50.2612 39.2337 39.2337 50.2612 25.6306 50.2612C12.0275 50.2612 1 39.2337 1 25.6306C1 12.0275 12.0275 1 25.6306 1ZM25.6713 5.64616C15.2639 5.64616 6.71091 13.5855 5.73831 23.7379C5.69562 24.1835 6.13578 24.5085 6.55609 24.3544V24.3544V24.3544C6.9775 24.2386 7.41535 24.1692 7.8448 24.2502C8.22779 24.3225 8.68965 24.4598 9.096 24.7035C9.76547 25.105 10.1967 25.3247 10.3479 25.3935C10.36 25.399 10.3716 25.4052 10.3828 25.4123V25.4123C10.5565 25.5229 10.785 25.3981 10.793 25.1924C11.1015 17.3014 17.5961 10.9989 25.5626 10.9989C33.7259 10.9989 40.3436 17.6166 40.3436 25.78V25.78C40.3436 26.3912 41.0279 26.8027 41.5411 26.4708L43.4642 25.2271C43.6759 25.1107 44.1151 24.878 44.1786 24.878C44.2003 24.878 44.2281 24.8649 44.2684 24.8458C44.3654 24.7999 44.5353 24.7195 44.8697 24.7056C44.9377 24.7027 45.0055 24.6944 45.0712 24.6763V24.6763C45.4167 24.5813 45.6504 24.2566 45.6192 23.8996C44.7224 13.6699 36.1339 5.64616 25.6713 5.64616ZM40.2622 25.78C40.2622 26.0031 40.2572 26.225 40.2474 26.4456C40.2218 27.0197 39.8988 27.5329 39.4162 27.8449V27.8449L36.4001 29.7647L36.1911 29.9026C35.2757 30.5064 34.3807 31.176 33.3675 31.5954C33.2854 31.6294 33.2103 31.6595 33.1458 31.6845V31.6845C32.8432 31.8119 32.5245 31.3541 32.7204 31.0905C33.8226 29.6074 34.4747 27.7698 34.4747 25.78C34.4747 20.858 30.4846 16.8679 25.5626 16.8679C20.6406 16.8679 16.6505 20.858 16.6505 25.78C16.6505 26.6201 16.7668 27.4331 16.9841 28.2037C17.071 28.512 16.7832 28.8136 16.4776 28.7176V28.7176L15.5252 28.3685L14.9696 28.194L14.9055 28.1705C14.6328 28.0706 14.3307 28.0166 14.0965 27.8449V27.8449L13.3821 27.3214V27.3214C11.8141 26.3234 10.7942 24.5724 11.175 22.7532C12.5703 16.0869 18.4818 11.0804 25.5626 11.0804C33.681 11.0804 40.2622 17.6616 40.2622 25.78Z" stroke="#391709" stroke-width="1.2341" stroke-linecap="round"/>
</svg>
