<svg xmlns="http://www.w3.org/2000/svg" viewBox="0 0 626.03 472.22"><defs><style>.cls-1{fill:#FBF8F4;}</style></defs><g id="Layer_2" data-name="Layer 2"><g id="Layer_1-2" data-name="Layer 1"><path class="cls-1" d="M575,326.59H68.87V250.84L75,247.58l8.44-4.36,9.2-4.35,7.67-3.26,6.14-2.18,3.06-1.08,3.84-1.09,4.6-1.09,4.6-1.09,6.14-1.09a58.1,58.1,0,0,1,18.4,3.27c6.75,2.61,11,4,12.27,4.35l29.14,12,2.3,1.08,2.3,1.09,2.3,1.09a11.3,11.3,0,0,0,3.84,1.09l4.6,1.09,5.37,1.09,9.2,2.17,10.73,2.18,13,2.17,11.5,4.35,3.84,1.09,2.3,1.09,3.83,1.09,6.14,2.17,9.2,3.27,6.9,2.17,12.27,4.36,11.51,3.26c6.9,2.54,21.93,6.74,26.83,3.26l6.91-2.17,36-9.79c4.34-1.09,13.65-3.7,16.1-5.44l15.34-6.53,29.14-12,39.11-16.32a66.63,66.63,0,0,1,6.9-2.17c.77,0,2.3-1.09,7.67-1.09L506,229.08l9.2-1.09c7.93-1.45,25.31-5.87,31.45-12L575,198.62Z"/><path class="cls-1" d="M416.36,123.68a3,3,0,0,0-3.05-1.66c-.46.06-.87.23-1.32.33-3.46.78-9.2-3-12.14-4.11-5.41-2.08-10.85-4.31-15-7.58a75.82,75.82,0,0,0-8.49-6.42c-3.59-2.16-7.08-4.47-10.8-6.49-2.07-1.25-4.16-2.45-6.31-3.62-.92-.49-6.9-3-6.9-3.73l-16.57-9a20.16,20.16,0,0,1-2.67-1.62,6.34,6.34,0,0,1-.77-.68c-2.26-2.29-.79-5.28-4.19-6.81-2.92-1.31-6.51-1.58-9.51-2.78-5.5-2.19-10.33-5.25-16-7.16A80.22,80.22,0,0,0,293.43,60l-23.1-4.93A22.22,22.22,0,0,1,263.72,53a14.82,14.82,0,0,1-3.45-3.12c-2.9-3.24-5.73-8.39-11-9.88q-5.38-1.53-10.95-2.65a153,153,0,0,0-22.72-2.83,27.77,27.77,0,0,0-8.37.51,36,36,0,0,0-6.19,2.63,50.85,50.85,0,0,1-25.39,4.3,24.74,24.74,0,0,0-6.87-.09,16.93,16.93,0,0,0-5.72,2.68,129.91,129.91,0,0,1-34,14.69c-5.12,1.41-10.48,2.6-14.89,5s-4.75,4.49-6,8a6.71,6.71,0,0,1-3.83,3.68c-2.54,1.09-5.12.51-7.76.91A80.53,80.53,0,0,0,87.82,79Q79.3,81.25,71,84A298.46,298.46,0,0,0,39.12,96.53c-9,4.16-18.14,9.31-21,16.75-.84,2.22-1.13,4.65-3.09,6.46-2.3,2.13-6.24,2.81-9.61,4-4,1.34-5.47,3-5.45,6.09a1,1,0,0,0,.2.72,2.12,2.12,0,0,0,1.28.44c3,.35,6.09.42,9.15.49,2.19,0,3.82.15,5.56-.82a6.43,6.43,0,0,1,1.65-.71,2.34,2.34,0,0,1,1.8.27c2.78,2.11-1.92,5.46-2.62,7.38a2.15,2.15,0,0,0,.71,2.71,5.78,5.78,0,0,0,3.09.48c2.6-.09,5.52-.39,7.08-1.9.4-.38.68-.83,1.11-1.19a7.07,7.07,0,0,1,1.59-.93c2.56-1.22,6.23-3.92,9.51-3.64a8.14,8.14,0,0,1,2.41.68,56.82,56.82,0,0,1,7.3,3.58c1.61.94,3.91,3.64,6.14,3.54a3.53,3.53,0,0,0,2.54-1.54,4.87,4.87,0,0,1,2.15-1.92c2.23-.78,5.08.39,7.44.08,1.92-.25,3.69-1.19,5.59-1.59,2.32-.5,4.68-.88,7.06-1.21l12.78,7a2.34,2.34,0,0,0,.64.18l54,8.59a2.4,2.4,0,0,1,1.4.7l29.77,32.42a1.56,1.56,0,0,1,.24.35c1.72,3.18,23.57,20.53,21.86,28.92-1.75,8.56,0,36.64.09,37.67v.06c-.15,7.78-10.15,38.85,1.1,44.89a6.94,6.94,0,0,0,4.75.43c19.26-4.68,41.9-2.43,62-2.49,1.1,0,2.35,0,2.78-1a1.71,1.71,0,0,0,0-1.33c-3.38-8.68-6-12.39-14.21-18.31-6.58-4.75-16.51-12.12-19-18.88-5.1-14-.27-26.47.23-40.36a37,37,0,0,1,.43-5.54c-.22-.31-.67-1.59-1.5-5.63-2.28-11.11,23.49-31,29.68-40.58a2.2,2.2,0,0,1,1.38-.88l8-6.63,30.61-4.58c.32-.07,7.85-3.76,8.1-3.92l19.68-10.45c2.2,1.49,3.45,4.06,6.42,4.29a8.7,8.7,0,0,0,4.94-1.59c4.42-2.57,10.26-5.05,14-8.14,2.76-2.3,4.2-5.3,9.55-4.75a5.28,5.28,0,0,1,2.39.72,6.35,6.35,0,0,1,1.6,2.08c2.06,3.13,6.91,4.6,11.06,6.31a4.8,4.8,0,0,0,1.2.38,5.47,5.47,0,0,0,1.8-.14,32.56,32.56,0,0,1,8.6-.37c2.71.25,3.8,1.36,6.05,2.37,3,1.37,8.46,3.05,10.86.11A5.26,5.26,0,0,0,415,134a55,55,0,0,1,1.56-5.29A11.08,11.08,0,0,0,416.36,123.68Zm-399-6a2,2,0,0,1,.86-1.14A10.65,10.65,0,0,1,17.38,117.71ZM303.29,85c-2.39,8.12,14.2,7.73,13.69,13.85-6,3.61,3.2,5,6.67,6.68,7.31,3.22-4.67,4.58-5.46,7.23-8.62-.44-9.75-10.84-20.3-9.12-8-.11-16.1-.29-22.68,3.46-4.83,1-4.78-4.61-9.36-1.57-8.5,3.56-14.89-6.75-5.81-10.39C280.42,92.29,288,102.81,303.29,85Zm-31.55-6.6c2,8-28.87,14.66-28.25,6.67C242.23,77.69,267.59,71.41,271.74,78.37ZM253.8,116.7c4.06,4.51,24.78.91,17.94,8.56-4.55,3.69-7.92-3.14-12.57-1.26-4.32,2.79-9.47-3.7-14.12-1.45-3.21,2-1.56-1-2.86-2.45C246.35,119.47,248.17,115,253.8,116.7ZM193.74,57.1c7.37-4.49,39.56.75,31.63,10.07C213.33,69.92,200.31,65,188,64,182.11,65.66,192.72,59.77,193.74,57.1Zm-15.51-1.64c-10.73,9-7,10.72-23.66,2.58C162.23,57.06,178.18,47.73,178.23,55.46ZM69.8,103.16c6.13-3.87,24.44.52,22.11,3.27-9.35,0-17.16,4.95-26.26,6.61C75.07,109.41,69.94,108.76,69.8,103.16Zm67.4,40.48c-9.23-1.26-14.93-3.16-21.23-4.47-3.6-.65-18.74-2.76-19.75-3.24l-.12-.05-4.64-2.55c7.42-1,15.44-2.51,20.79-6.47l26.58,13.77C140.94,141.61,139.65,144,137.2,143.64Zm17.8,4.13-40-23.45c1.43-1.67,3.33-3.8,5.88-3.24,1.53.34,2.3,1.54,3,2.57,4.65,6.37,15.59,9.83,25.21,8.26l8.91,14.23C158.93,147.53,156.56,148.79,155,147.77Zm32,32.91-25.84-38.8-.14-.27-6.16-11.25c4.88-1.78,9.42-4.24,14.82-4.57,3.68-.22,7.3.6,10.91,1.16a80.11,80.11,0,0,0,25.44-.17c4.37-.75,8.8-1.86,13.21-2.24-3.35,2-6.12,3.77-6.75,4.13l-24.86,14.48c-3.34,1.94-4.91,5.07-4.08,8.11l7.72,28.38C191.79,181.54,188.16,182.42,187,180.68Zm28.58-29.59-6.71,35.29c-.37,2-4.3,1.87-4.5-.1L192.56,149c-3.55-3.4,8.79-8.87,9-9.15l14.07-8.91c.08,0,4-3.13,8.14-6.46a20.64,20.64,0,0,1,10.85,3.77c1.21.8,2.3,1.7,3.58,2.45a11.55,11.55,0,0,0,2,.94l-24.08,18.57A1.49,1.49,0,0,0,215.58,151.09Zm19.29,20.12c-7.31,2.69-14-5.67-13.5-6.54l.59-4.32c.79-5.71,3.89-11.12,8.91-15.55l15.39-13.57.5-.06c2-.3,4.14-2.5,6.29-1.38,2.75,1.43,1.06,4.51,3.81,6.39a16.78,16.78,0,0,0,8.71,2.47L252,153.55C251.15,154.36,242.66,168.34,234.87,171.21Zm72-26.15c-.23.11-5.62,1.32-5.89,1.37l-26.26,4a2.63,2.63,0,0,0-1.23.52l-9.76,8c-1.81,1.49-5-.18-3.67-1.91l18.66-23.92a9.32,9.32,0,0,1,2.1-1.27c3.73-1.42,10.76-1.32,14.74-.64a34.06,34.06,0,0,0,3.48.56,5,5,0,0,0,3.28-.76c.83-.66,1.25-1.87,1.84-2.67a14.26,14.26,0,0,0,1.92-3,7.83,7.83,0,0,1,1.1-2.32A3.12,3.12,0,0,1,310,122a3.63,3.63,0,0,1,2.12,1.47c.65.77,1.3,1.55,2,2.32a21.59,21.59,0,0,0,5.13,4.61c1.78,1.12,3.28,3.06,5.58,3.69a10.55,10.55,0,0,0,3.56.21Z"/><path class="cls-1" d="M124.69,256.06c.27.36.18-.75,0,0Z"/><path class="cls-1" d="M485.54,135.42h-2A131.41,131.41,0,1,1,445.05,42.5a131,131,0,0,1,38.49,92.92h4A135.42,135.42,0,1,0,352.14,270.83,135.42,135.42,0,0,0,487.55,135.42Z"/><path class="cls-1" d="M68.21,410a3.49,3.49,0,0,0,2.2,1.19v1.44q-5.19-.21-13.11-.21-8.2,0-12.09.21v-1.44a11.32,11.32,0,0,0,3.89-.68,2,2,0,0,0,1.15-1.91,9.94,9.94,0,0,0-.87-3.46l-4.24-11.8H30.59l-1.22,3.24Q27,402.7,27,405.94c0,2,.55,3.31,1.66,4a9.76,9.76,0,0,0,4.89,1.22v1.44q-5.4-.21-9.43-.21c-2.25,0-4.1.07-5.54.21v-1.44A5.56,5.56,0,0,0,22,409a23.75,23.75,0,0,0,3.24-6.19l16-41.11c1.53.09,2.8.14,3.81.14s2.21-.05,3.75-.14l17.42,44.92A10.26,10.26,0,0,0,68.21,410ZM44.63,391.9l-6.55-18-6.91,18Z"/><path class="cls-1" d="M110.22,373.75a48.92,48.92,0,0,0,.22,5.19h-1.66q-1.73-8.35-5.29-12a10.93,10.93,0,0,0-7.95-3.64H94.6a8.88,8.88,0,0,0-2.84.33,1.94,1.94,0,0,0-1.23,1.22,10,10,0,0,0-.32,3v18.43h.72a8.34,8.34,0,0,0,6.41-2.95,13.72,13.72,0,0,0,3.38-6.55h1.66c-.15,2-.22,4.27-.22,6.76V387q0,3.67.43,10.22h-1.65a12,12,0,0,0-3.35-6.8,9,9,0,0,0-6.66-2.7h-.72v16.56a11.46,11.46,0,0,0,.61,4.39,3.3,3.3,0,0,0,2.23,1.84,20.43,20.43,0,0,0,5.15.47v1.65q-9.72-.21-14.83-.21c-2.26,0-5.4,0-9.43.14l-3.46.07v-1.44a11.1,11.1,0,0,0,3.35-.57,2.42,2.42,0,0,0,1.4-1.66,15.47,15.47,0,0,0,.36-4V369.29a14.37,14.37,0,0,0-.39-4,2.56,2.56,0,0,0-1.41-1.66,10.61,10.61,0,0,0-3.31-.57v-1.44q8.35.21,25.2.21,10.59,0,15-.21Q110.22,368.43,110.22,373.75Z"/><path class="cls-1" d="M166,409.75a12.17,12.17,0,0,1-4.75,3,19.32,19.32,0,0,1-6,.86q-5,0-7.7-1.76c-1.83-1.18-2.95-3.18-3.39-6l-1.08-7.2a27,27,0,0,0-2-7.63,4,4,0,0,0-3.78-2.59H134V405a14.23,14.23,0,0,0,.4,4,2.52,2.52,0,0,0,1.4,1.66,10.75,10.75,0,0,0,3.32.57v1.44q-4.18-.21-12-.21-8.71,0-12.82.21v-1.44a11,11,0,0,0,3.35-.57A2.41,2.41,0,0,0,119,409a15.47,15.47,0,0,0,.36-4V369.29a14.28,14.28,0,0,0-.4-4,2.52,2.52,0,0,0-1.4-1.66,10.75,10.75,0,0,0-3.32-.57v-1.44q4.11.21,12.39.21l8.28-.07c1-.05,2.06-.07,3.31-.07q11,0,16.31,3.09a10.2,10.2,0,0,1,5.36,9.44,12.2,12.2,0,0,1-4,9.21q-4,3.82-13.54,4.68,7.35.51,11.09,2.77a9.62,9.62,0,0,1,4.61,6.66l1.51,7.49a10,10,0,0,0,1.23,3.67,2.31,2.31,0,0,0,2,1,3.07,3.07,0,0,0,2.24-.93ZM135.39,363.6a2.64,2.64,0,0,0-1.12,1.8,19.47,19.47,0,0,0-.29,3.89V387h2q5.1,0,7-3.13t1.87-8.82c0-3.94-.54-6.91-1.62-8.93a5.54,5.54,0,0,0-5.29-3A4.92,4.92,0,0,0,135.39,363.6Z"/><path class="cls-1" d="M191,363.1a11,11,0,0,0-3.35.57,2.41,2.41,0,0,0-1.41,1.66,15.52,15.52,0,0,0-.36,4V405a14.23,14.23,0,0,0,.4,4,2.52,2.52,0,0,0,1.4,1.66,10.75,10.75,0,0,0,3.32.57v1.44q-4.19-.21-12-.21-8.72,0-12.81.21v-1.44a11,11,0,0,0,3.34-.57,2.41,2.41,0,0,0,1.41-1.66,15.47,15.47,0,0,0,.36-4V369.29a13.9,13.9,0,0,0-.4-4,2.52,2.52,0,0,0-1.4-1.66,10.67,10.67,0,0,0-3.31-.57v-1.44q4.1.21,12.81.21c5.19,0,9.19-.07,12-.21Z"/><path class="cls-1" d="M229.6,361.87a25.11,25.11,0,0,1,5.9,3.46,2.13,2.13,0,0,0,1.37.65q1.44,0,1.87-4.32h1.66q-.28,5.11-.29,18h-1.66a31.66,31.66,0,0,0-1.87-9.08,12.26,12.26,0,0,0-4.75-5.54,12.41,12.41,0,0,0-6.7-2.16q-7.49,0-10.51,7.2a50.55,50.55,0,0,0,0,34.42q3,7.2,10.51,7.2a12.41,12.41,0,0,0,6.7-2.16,11.29,11.29,0,0,0,4.75-5.62,36.6,36.6,0,0,0,1.87-10h1.66q0,13.47.29,18.72h-1.66a12.69,12.69,0,0,0-.61-3.27c-.26-.65-.64-1-1.12-1a3.25,3.25,0,0,0-1.51.58,30.07,30.07,0,0,1-6.19,3.49,19.17,19.17,0,0,1-7.13,1.19,31.07,31.07,0,0,1-14.25-3.1,22.36,22.36,0,0,1-9.51-9,27.62,27.62,0,0,1-3.38-14,28.09,28.09,0,0,1,3.45-14,24.26,24.26,0,0,1,9.65-9.51,29,29,0,0,1,14.11-3.38A19.76,19.76,0,0,1,229.6,361.87Z"/><path class="cls-1" d="M292.2,410a3.49,3.49,0,0,0,2.2,1.19v1.44q-5.19-.21-13.11-.21-8.21,0-12.09.21v-1.44a11.2,11.2,0,0,0,3.88-.68,1.94,1.94,0,0,0,1.16-1.91,9.94,9.94,0,0,0-.87-3.46l-4.24-11.8H254.58l-1.22,3.24Q251,402.7,251,405.94c0,2,.55,3.31,1.66,4a9.76,9.76,0,0,0,4.89,1.22v1.44q-5.4-.21-9.43-.21c-2.26,0-4.1.07-5.54.21v-1.44a5.59,5.59,0,0,0,3.38-2.23,23.75,23.75,0,0,0,3.24-6.19l16-41.11c1.53.09,2.8.14,3.81.14s2.21-.05,3.75-.14l17.42,44.92A10.26,10.26,0,0,0,292.2,410Zm-23.58-18.1-6.55-18-6.91,18Z"/><path class="cls-1" d="M343.43,363.1a6.77,6.77,0,0,0-3.31,1.55,5.59,5.59,0,0,0-1.44,3.2,42.82,42.82,0,0,0-.36,6.48v38.3c-1-.09-1.76-.14-2.38-.14s-1.42.05-2.66.14l-31.9-34.85v20.74a48.53,48.53,0,0,0,.43,7.67,5.22,5.22,0,0,0,1.91,3.42,11.38,11.38,0,0,0,4.93,1.58v1.44c-2-.14-4.65-.21-8.06-.21q-3.82,0-6,.21v-1.44a6.73,6.73,0,0,0,3.31-1.55,5.59,5.59,0,0,0,1.45-3.2,44.19,44.19,0,0,0,.36-6.48V369.29a14.28,14.28,0,0,0-.4-4,2.53,2.53,0,0,0-1.41-1.66,10.61,10.61,0,0,0-3.31-.57v-1.44q2.16.21,6,.21t6.62-.21l29.45,31.1v-17a47.33,47.33,0,0,0-.43-7.67,5.22,5.22,0,0,0-1.91-3.42,11.38,11.38,0,0,0-4.93-1.58v-1.44c2,.14,4.65.21,8.06.21q3.82,0,6-.21Z"/><path class="cls-1" d="M383,392v12.24a11.46,11.46,0,0,0,.61,4.39,3.3,3.3,0,0,0,2.23,1.84A20.43,20.43,0,0,0,391,411v1.65q-9.72-.21-14.83-.21c-2.26,0-5.4,0-9.44.14l-3.45.07v-1.44a11.17,11.17,0,0,0,3.35-.57A2.42,2.42,0,0,0,368,409a15.47,15.47,0,0,0,.36-4V369.29a13.9,13.9,0,0,0-.4-4,2.52,2.52,0,0,0-1.4-1.66,10.67,10.67,0,0,0-3.31-.57v-1.44q4.09.21,12.38.21l8.28-.07c1-.05,2.07-.07,3.31-.07q10.67,0,16.17,3.85a12,12,0,0,1,5.51,10.33,14.66,14.66,0,0,1-2.16,7.6,16.25,16.25,0,0,1-7.35,6.08q-5.17,2.46-13.75,2.45Zm1.4-28.44a2.71,2.71,0,0,0-1.12,1.8,19.63,19.63,0,0,0-.28,3.89V390.6h1.94q5,0,7-3.74t1.91-10.16q0-7-1.59-10.29a5.46,5.46,0,0,0-5.33-3.31A4.92,4.92,0,0,0,384.36,363.6Z"/><path class="cls-1" d="M437,363.1a14,14,0,0,0-3.78.57,2.6,2.6,0,0,0-1.62,1.66,13,13,0,0,0-.43,4v37.15a11.08,11.08,0,0,0,.28,2.95,1.89,1.89,0,0,0,1,1.26,6.17,6.17,0,0,0,2.38.33h2.37q2.52,0,5.48-2.52A25.06,25.06,0,0,0,448,401.8a26.4,26.4,0,0,0,3.17-8.61h1.66q-.22,2.6-.22,6.63,0,7.77.51,12.81-4.91-.21-16.49-.21-16.85,0-25.2.21v-1.44a11.17,11.17,0,0,0,3.35-.57,2.42,2.42,0,0,0,1.4-1.66,15.47,15.47,0,0,0,.36-4V369.29a13.9,13.9,0,0,0-.4-4,2.52,2.52,0,0,0-1.4-1.66,10.67,10.67,0,0,0-3.31-.57v-1.44c2.73.14,7,.21,12.81.21q8.28,0,12.75-.21Z"/><path class="cls-1" d="M502.66,410a3.45,3.45,0,0,0,2.19,1.19v1.44q-5.18-.21-13.1-.21-8.21,0-12.1.21v-1.44a11.32,11.32,0,0,0,3.89-.68,1.93,1.93,0,0,0,1.15-1.91,10.11,10.11,0,0,0-.86-3.46l-4.25-11.8H465l-1.23,3.24q-2.37,6.12-2.37,9.36c0,2,.55,3.31,1.65,4a9.83,9.83,0,0,0,4.9,1.22v1.44c-3.6-.14-6.75-.21-9.43-.21q-3.39,0-5.55.21v-1.44A5.61,5.61,0,0,0,456.4,409a24.37,24.37,0,0,0,3.24-6.19l16-41.11c1.54.09,2.81.14,3.82.14s2.2-.05,3.74-.14l17.42,44.92A10.26,10.26,0,0,0,502.66,410Zm-23.58-18.1-6.56-18-6.91,18Z"/><path class="cls-1" d="M529.76,363.1a11,11,0,0,0-3.34.57,2.41,2.41,0,0,0-1.41,1.66,15.52,15.52,0,0,0-.36,4V405a13.86,13.86,0,0,0,.4,4,2.52,2.52,0,0,0,1.4,1.66,10.67,10.67,0,0,0,3.31.57v1.44q-4.17-.21-12-.21-8.72,0-12.82.21v-1.44a11,11,0,0,0,3.35-.57,2.39,2.39,0,0,0,1.4-1.66,14.92,14.92,0,0,0,.37-4V369.29a14.28,14.28,0,0,0-.4-4,2.52,2.52,0,0,0-1.4-1.66,10.75,10.75,0,0,0-3.32-.57v-1.44q4.11.21,12.82.21,7.77,0,12-.21Z"/><path class="cls-1" d="M582.75,363.1a6.82,6.82,0,0,0-3.31,1.55,5.59,5.59,0,0,0-1.44,3.2,42.82,42.82,0,0,0-.36,6.48v38.3c-1-.09-1.75-.14-2.37-.14s-1.42.05-2.67.14l-31.89-34.85v20.74a47.33,47.33,0,0,0,.43,7.67,5.18,5.18,0,0,0,1.91,3.42,11.33,11.33,0,0,0,4.93,1.58v1.44q-3-.21-8.07-.21-3.81,0-6,.21v-1.44a6.77,6.77,0,0,0,3.31-1.55,5.59,5.59,0,0,0,1.44-3.2,42.82,42.82,0,0,0,.36-6.48V369.29a13.9,13.9,0,0,0-.4-4,2.52,2.52,0,0,0-1.4-1.66,10.67,10.67,0,0,0-3.31-.57v-1.44q2.16.21,6,.21c2.6,0,4.8-.07,6.63-.21L576,392.76v-17a47,47,0,0,0-.44-7.67,5.17,5.17,0,0,0-1.9-3.42,11.43,11.43,0,0,0-4.94-1.58v-1.44q3,.21,8.07.21,3.81,0,6-.21Z"/><path class="cls-1" d="M612.89,361.41a24.36,24.36,0,0,1,5,2.12c.53.29,1,.53,1.4.72a2.61,2.61,0,0,0,1.05.29,1.14,1.14,0,0,0,1-.76,8.84,8.84,0,0,0,.57-2.41h1.66q-.36,5.17-.36,17.57h-1.66a24.17,24.17,0,0,0-1.87-7.85,16.45,16.45,0,0,0-4.32-6.12,9.37,9.37,0,0,0-6.34-2.38,7.77,7.77,0,0,0-5.32,1.77,6.18,6.18,0,0,0-2,4.93,8.11,8.11,0,0,0,1.08,4.25,13.51,13.51,0,0,0,3.17,3.49c1.39,1.13,3.67,2.79,6.84,5a7.11,7.11,0,0,1,.83.51l.75.57A69,69,0,0,1,620.7,388a17.44,17.44,0,0,1,3.85,4.94,13.75,13.75,0,0,1,1.48,6.47,12,12,0,0,1-2.63,7.89,15.8,15.8,0,0,1-7.09,4.79,29.53,29.53,0,0,1-9.87,1.58,31.17,31.17,0,0,1-7.31-.72A27.9,27.9,0,0,1,593.7,411a5.24,5.24,0,0,0-2.45-1,1.12,1.12,0,0,0-1,.75,8.57,8.57,0,0,0-.57,2.42H588q.29-4.9.29-20.88H590q.51,8.57,3.6,13.89a10.28,10.28,0,0,0,9.51,5.33,9.79,9.79,0,0,0,6.3-1.87,6.28,6.28,0,0,0,2.34-5.19,10.29,10.29,0,0,0-2.56-7,40.61,40.61,0,0,0-7.95-6.52,83.62,83.62,0,0,1-6.92-5,18.78,18.78,0,0,1-4.24-5,12.77,12.77,0,0,1-1.66-6.58,11.79,11.79,0,0,1,2.45-7.6,14.46,14.46,0,0,1,6.51-4.54,26,26,0,0,1,8.9-1.47A23.91,23.91,0,0,1,612.89,361.41Z"/><path class="cls-1" d="M69.84,455.57a17.34,17.34,0,0,1,1-5.8,16.2,16.2,0,0,1,3-5.16,15.24,15.24,0,0,1,4.82-3.7,14.29,14.29,0,0,1,6.5-1.44,13.39,13.39,0,0,1,7.37,2,12.24,12.24,0,0,1,4.55,5.09l-2.55,1.55a9.73,9.73,0,0,0-1.86-2.69,10.13,10.13,0,0,0-5-2.75,13.08,13.08,0,0,0-2.68-.29,10.8,10.8,0,0,0-5.14,1.18,12,12,0,0,0-3.75,3.09,13.61,13.61,0,0,0-2.3,4.3,15.81,15.81,0,0,0-.77,4.85,14.64,14.64,0,0,0,3.48,9.48,12.22,12.22,0,0,0,3.82,3,10.52,10.52,0,0,0,4.8,1.11,12,12,0,0,0,2.8-.34,10.64,10.64,0,0,0,2.77-1.09,11.91,11.91,0,0,0,2.48-1.86,9.84,9.84,0,0,0,1.91-2.71l2.64,1.36a9.85,9.85,0,0,1-2.19,3.21,13.81,13.81,0,0,1-3.14,2.34,15.67,15.67,0,0,1-7.45,2,12.93,12.93,0,0,1-6.1-1.46A15.9,15.9,0,0,1,74.07,467,17.43,17.43,0,0,1,71,461.64,17.2,17.2,0,0,1,69.84,455.57Z"/><path class="cls-1" d="M116,472.17a13.72,13.72,0,0,1-6.16-1.38,15.33,15.33,0,0,1-4.8-3.69,16.47,16.47,0,0,1-3.09-5.25,17.3,17.3,0,0,1-1.1-6.05,16.92,16.92,0,0,1,1.16-6.19,17.34,17.34,0,0,1,3.21-5.23,15.45,15.45,0,0,1,4.82-3.61,13.67,13.67,0,0,1,6-1.34,13.27,13.27,0,0,1,6.16,1.43,15.54,15.54,0,0,1,4.77,3.75,17.19,17.19,0,0,1,3.07,5.26A17.07,17.07,0,0,1,130,462a17.14,17.14,0,0,1-3.19,5.21,15.35,15.35,0,0,1-4.8,3.59A13.52,13.52,0,0,1,116,472.17ZM104,455.8a15.17,15.17,0,0,0,.86,5.07,14,14,0,0,0,2.46,4.32,12,12,0,0,0,3.77,3,11.08,11.08,0,0,0,9.83-.06,12.08,12.08,0,0,0,3.77-3.1,14.22,14.22,0,0,0,2.39-4.32,14.78,14.78,0,0,0,.84-4.91,14.47,14.47,0,0,0-.89-5.07,14,14,0,0,0-2.47-4.3,12.45,12.45,0,0,0-3.78-3,11.1,11.1,0,0,0-9.78.05,11.72,11.72,0,0,0-3.77,3.07,14.22,14.22,0,0,0-2.39,4.32A14.82,14.82,0,0,0,104,455.8Z"/><path class="cls-1" d="M140.42,445.57V472h-3.13v-32.3h2.45l21.38,26.88V439.7h3.14V472h-2.73Z"/><path class="cls-1" d="M191.41,445.7a9.85,9.85,0,0,0-3.66-2.5,13.49,13.49,0,0,0-5.17-.95q-4.32,0-6.27,1.61a5.38,5.38,0,0,0-2,4.39,4.83,4.83,0,0,0,.53,2.39,4.42,4.42,0,0,0,1.63,1.61,12.07,12.07,0,0,0,2.82,1.19c1.14.33,2.48.66,4,1a45.6,45.6,0,0,1,4.64,1.2,13.09,13.09,0,0,1,3.5,1.68,7.11,7.11,0,0,1,2.23,2.51,7.87,7.87,0,0,1,.77,3.66,8.23,8.23,0,0,1-.86,3.86,7.79,7.79,0,0,1-2.41,2.73,10.81,10.81,0,0,1-3.69,1.62,19.92,19.92,0,0,1-4.64.52,19,19,0,0,1-13-4.69l1.55-2.59a14.12,14.12,0,0,0,4.77,3.16,16.6,16.6,0,0,0,6.69,1.3A11.2,11.2,0,0,0,189,468a4.64,4.64,0,0,0,2.18-4.21,4.83,4.83,0,0,0-.61-2.52,5.35,5.35,0,0,0-1.85-1.77,13.14,13.14,0,0,0-3.06-1.3c-1.23-.36-2.65-.73-4.26-1.09s-3.18-.8-4.45-1.23a11.19,11.19,0,0,1-3.21-1.59,6.23,6.23,0,0,1-2-2.3,7.39,7.39,0,0,1-.66-3.29,8.92,8.92,0,0,1,.85-4,7.91,7.91,0,0,1,2.36-2.92A11.13,11.13,0,0,1,178,440a16.64,16.64,0,0,1,4.66-.61,15.76,15.76,0,0,1,5.71,1,15.59,15.59,0,0,1,4.57,2.76Z"/><path class="cls-1" d="M222,469.13V472H200.28v-32.3h21.28v2.82H203.42v11.65h15.82v2.68H203.42v12.33Z"/><path class="cls-1" d="M228.16,472v-32.3h13.6a8.52,8.52,0,0,1,3.86.89,10.16,10.16,0,0,1,3,2.32,10.7,10.7,0,0,1,2,3.25,10.15,10.15,0,0,1,.7,3.69,10.82,10.82,0,0,1-.52,3.38,10.17,10.17,0,0,1-1.48,2.92,9.21,9.21,0,0,1-2.27,2.18,8.16,8.16,0,0,1-3,1.21l8,12.46h-3.59L240.85,460H231.3V472Zm3.14-14.74h10.59a5.39,5.39,0,0,0,2.57-.61,6.21,6.21,0,0,0,2-1.66,8,8,0,0,0,1.27-2.37,8.26,8.26,0,0,0,.46-2.77,7.81,7.81,0,0,0-.52-2.8,7.73,7.73,0,0,0-1.41-2.34,6.56,6.56,0,0,0-2.1-1.59,5.56,5.56,0,0,0-2.52-.6H231.3Z"/><path class="cls-1" d="M257,439.65,268.59,468l11.46-28.34h3.37L270,472h-2.77l-13.46-32.3Z"/><path class="cls-1" d="M282.14,472l13.51-32.3h2.59L311.75,472h-3.41l-4.18-10.1H289.65L285.51,472ZM297,443.38l-6.64,16h13.1Z"/><path class="cls-1" d="M336.18,442.47H324.67V472h-3.18V442.47H310v-2.82h26.2Z"/><path class="cls-1" d="M341.13,472V439.7h3.14V472Z"/><path class="cls-1" d="M365.56,472.17a13.76,13.76,0,0,1-6.17-1.38,15.56,15.56,0,0,1-4.8-3.69,16.85,16.85,0,0,1-3.09-5.25,17.52,17.52,0,0,1-1.09-6.05,17.12,17.12,0,0,1,4.37-11.42,15.45,15.45,0,0,1,4.82-3.61,13.66,13.66,0,0,1,6-1.34,13.21,13.21,0,0,1,6.16,1.43,15.46,15.46,0,0,1,4.78,3.75,17.4,17.4,0,0,1,3.07,5.26,16.91,16.91,0,0,1,1.09,6,16.63,16.63,0,0,1-1.16,6.18,16.92,16.92,0,0,1-3.18,5.21,15.35,15.35,0,0,1-4.8,3.59A13.52,13.52,0,0,1,365.56,472.17Zm-12-16.37a14.92,14.92,0,0,0,.86,5.07,13.73,13.73,0,0,0,2.45,4.32,12.07,12.07,0,0,0,3.78,3,10.49,10.49,0,0,0,4.87,1.12,10.34,10.34,0,0,0,4.95-1.18,12,12,0,0,0,3.78-3.1,14.22,14.22,0,0,0,2.39-4.32,14.83,14.83,0,0,0-.05-10,14,14,0,0,0-2.48-4.3,12.41,12.41,0,0,0-3.77-3,11.1,11.1,0,0,0-9.78.05,11.65,11.65,0,0,0-3.78,3.07,14.19,14.19,0,0,0-2.38,4.32A14.57,14.57,0,0,0,353.6,455.8Z"/><path class="cls-1" d="M390,445.57V472h-3.14v-32.3h2.46l21.38,26.88V439.7h3.13V472h-2.73Z"/><path class="cls-1" d="M455.38,442.47h-11.5V472h-3.19V442.47h-11.5v-2.82h26.19Z"/><path class="cls-1" d="M460.34,472v-32.3h13.6a8.6,8.6,0,0,1,3.87.89,10.11,10.11,0,0,1,3,2.32,10.7,10.7,0,0,1,2,3.25,10.16,10.16,0,0,1,.71,3.69,10.82,10.82,0,0,1-.53,3.38,10.17,10.17,0,0,1-1.48,2.92,9,9,0,0,1-2.27,2.18,8.08,8.08,0,0,1-3,1.21l8,12.46h-3.59L473,460h-9.55V472Zm3.14-14.74h10.6a5.42,5.42,0,0,0,2.57-.61,6.17,6.17,0,0,0,2-1.66,8.21,8.21,0,0,0,1.28-2.37,8.51,8.51,0,0,0,.45-2.77,7.6,7.6,0,0,0-.52-2.8,7.73,7.73,0,0,0-1.41-2.34,6.63,6.63,0,0,0-2.09-1.59,5.64,5.64,0,0,0-2.53-.6H463.48Z"/><path class="cls-1" d="M503.28,469.31a10.11,10.11,0,0,0,5.07-1.16,9.18,9.18,0,0,0,3.23-3,12.47,12.47,0,0,0,1.68-4.3,24.8,24.8,0,0,0,.48-4.86V439.65h3.18v16.29a25.52,25.52,0,0,1-.73,6.21,14.66,14.66,0,0,1-2.34,5.16,11.68,11.68,0,0,1-4.21,3.55,13.93,13.93,0,0,1-6.32,1.31,13.64,13.64,0,0,1-6.46-1.38,11.88,11.88,0,0,1-4.18-3.66,15,15,0,0,1-2.28-5.19,26.47,26.47,0,0,1-.68-6V439.65h3.14v16.29a24.62,24.62,0,0,0,.5,5,12.27,12.27,0,0,0,1.71,4.27,9.13,9.13,0,0,0,3.2,3A10,10,0,0,0,503.28,469.31Z"/><path class="cls-1" d="M543.53,445.7a9.81,9.81,0,0,0-3.67-2.5,13.44,13.44,0,0,0-5.16-.95q-4.32,0-6.27,1.61a5.38,5.38,0,0,0-2,4.39,4.84,4.84,0,0,0,.52,2.39,4.52,4.52,0,0,0,1.64,1.61,11.71,11.71,0,0,0,2.82,1.19c1.14.33,2.48.66,4,1a45.37,45.37,0,0,1,4.63,1.2,13,13,0,0,1,3.51,1.68,7,7,0,0,1,2.22,2.51,7.74,7.74,0,0,1,.78,3.66,8.11,8.11,0,0,1-.87,3.86,7.69,7.69,0,0,1-2.41,2.73,10.75,10.75,0,0,1-3.68,1.62,20,20,0,0,1-4.64.52,19,19,0,0,1-13-4.69l1.55-2.59a14.12,14.12,0,0,0,4.77,3.16,16.6,16.6,0,0,0,6.69,1.3,11.22,11.22,0,0,0,6-1.39,4.64,4.64,0,0,0,2.18-4.21,4.83,4.83,0,0,0-.62-2.52,5.31,5.31,0,0,0-1.84-1.77,13.23,13.23,0,0,0-3.07-1.3c-1.23-.36-2.64-.73-4.25-1.09s-3.18-.8-4.46-1.23a11.25,11.25,0,0,1-3.2-1.59,6.23,6.23,0,0,1-2-2.3,7.39,7.39,0,0,1-.66-3.29,9.06,9.06,0,0,1,.84-4,7.93,7.93,0,0,1,2.37-2.92,11,11,0,0,1,3.64-1.77,16.64,16.64,0,0,1,4.66-.61,15.79,15.79,0,0,1,5.71,1,15.59,15.59,0,0,1,4.57,2.76Z"/><path class="cls-1" d="M575,442.47H563.49V472h-3.18V442.47H548.8v-2.82H575Z"/></g></g></svg>