<svg width="82" height="82" viewBox="0 0 82 82" fill="none" xmlns="http://www.w3.org/2000/svg">
<path d="M71.7415 65.7733C76.0876 60.3029 77.9337 55.219 79.288 50.4904C80.6708 45.6624 80.5749 41.9989 80.5005 39.157C80.488 38.6794 80.4761 38.225 80.4719 37.7922C80.5578 38.8561 80.6015 39.9319 80.6015 41.0179C80.6015 62.8619 62.8935 80.5699 41.0495 80.5699C19.2056 80.5699 1.49752 62.8619 1.49752 41.0179C1.49752 19.1739 19.2056 1.4659 41.0495 1.4659C59.6589 1.4659 75.2666 14.318 79.4808 31.6304C80.2168 34.6541 79.0821 37.7649 76.084 38.599V38.599L76.0817 38.5997C75.9807 38.6278 75.8839 38.6547 75.7923 38.6807L74.2577 38.9619V38.9619C73.8443 39.0755 73.4315 38.7772 73.3958 38.3499C72.0079 21.7383 58.0854 8.68913 41.1152 8.68913C23.9698 8.68913 9.93551 22.0089 8.79553 38.8652C8.76785 39.2746 8.51959 39.6403 8.14399 39.8054V39.8054L6.60944 40.649L5.33064 41.4925L4.11397 42.3843C3.90207 42.5396 3.69344 42.6987 3.48785 42.8623C3.12967 43.1473 2.56525 43.5972 2.38941 43.742C2.20648 43.8927 1.95448 44.1042 1.81664 44.2201C1.75436 44.2725 1.72387 44.3534 1.73585 44.4339V44.4339C2.60523 50.279 3.51257 56.3793 9.5963 64.7226C14.3624 71.259 22.4395 77.3459 32.8247 79.4315C37.0878 80.8323 42.0238 80.5452 47.1473 79.9568C55.9983 78.9403 64.2596 74.031 69.4821 68.3999C70.3032 67.5146 71.0537 66.6391 71.7415 65.7733ZM71.7415 65.7733L71.133 64.0716C70.7222 62.9231 69.4821 62.0393 69.4821 60.8196V60.8196C69.4821 60.7343 69.2914 60.6459 69.0372 60.5669C68.3869 60.365 67.723 60.1986 67.1025 59.9183V59.9183C66.0872 59.4598 64.9859 59.2227 63.8719 59.2227H63.7256H63.2601H62.9295C61.976 59.2227 61.0253 59.0784 60.1326 58.7436V58.7436C59.4938 58.5041 59.3341 58.5041 58.4007 58.1847V58.1847C57.6881 57.9409 56.9683 57.6867 56.2407 57.4924L55.8431 57.3862C55.4631 57.2265 54.6073 56.8912 54.224 56.8273C54.2087 56.8248 54.1936 56.8219 54.1788 56.8189C53.7043 56.7202 53.4106 56.2534 53.0679 55.9107V55.9107C52.6194 55.4622 52.0814 55.1134 51.4889 54.887L51.0399 54.7154C50.5469 54.5271 50.0336 54.3971 49.5105 54.3281L45.9963 53.8646M45.9963 53.8646C45.1779 54.7644 42.6715 53.6772 41.5206 53.0211L39.6024 52.1775L37.5563 51.0528L36.4054 50.4904L33.8478 49.0845L33.4261 48.8991C33.2814 48.8354 33.1441 48.7562 33.0166 48.6627V48.6627C32.8891 48.5693 32.7517 48.49 32.607 48.4264L32.1853 48.2409V48.2409C30.9127 47.4947 29.5215 46.9233 28.0932 46.5538V46.5538V46.5538C27.8315 46.4716 27.6196 46.2757 27.5279 46.0172C27 44.5293 26.7126 42.9275 26.7126 41.2586C26.7126 33.401 33.0825 27.0312 40.94 27.0312C48.7976 27.0312 55.1674 33.401 55.1674 41.2586C55.1674 44.3488 54.1823 47.2088 52.5089 49.5418C51.2367 51.3156 49.2726 52.4074 47.2608 53.2545L47.1473 53.3023L45.9963 53.8646ZM41.0495 1.33472C61.3404 1.33472 78.0744 16.5637 80.4451 36.2154C80.447 36.2311 80.4672 36.2364 80.4762 36.2233V36.2233C80.4862 36.2085 80.51 36.2166 80.5087 36.2344C80.5006 36.3479 80.494 36.463 80.4886 36.58C80.4884 36.5854 80.4886 36.5909 80.4892 36.5963C80.6501 38.048 80.7327 39.5233 80.7327 41.0179C80.7327 62.9343 62.966 80.7011 41.0495 80.7011C19.1331 80.7011 1.36633 62.9343 1.36633 41.0179C1.36633 19.1015 19.1331 1.33472 41.0495 1.33472ZM41.1152 8.82031C24.3475 8.82031 10.5674 21.6116 9.00039 37.9686C8.93161 38.6865 9.64078 39.21 10.3179 38.9619V38.9619V38.9619C10.9969 38.7753 11.7023 38.6634 12.3942 38.7939C13.0113 38.9104 13.7554 39.1317 14.4101 39.5243C15.4887 40.1711 16.1835 40.5251 16.4271 40.636C16.4466 40.6448 16.4653 40.6548 16.4834 40.6663V40.6663C16.7632 40.8444 17.1313 40.6434 17.1442 40.3119C17.6413 27.5985 28.1048 17.4444 40.94 17.4444C54.0923 17.4444 64.7543 28.1064 64.7543 41.2586V41.2586C64.7543 42.2433 65.8567 42.9063 66.6835 42.3716L69.7819 40.3678C70.1229 40.1804 70.8306 39.8054 70.9329 39.8054C70.9679 39.8054 71.0126 39.7843 71.0775 39.7536C71.2339 39.6796 71.5075 39.55 72.0463 39.5276C72.1559 39.5231 72.2652 39.5095 72.371 39.4805V39.4805C72.9277 39.3275 73.3042 38.8043 73.2538 38.2291C71.809 21.7476 57.9718 8.82031 41.1152 8.82031ZM64.6231 41.2586C64.6231 41.618 64.6151 41.9756 64.5992 42.3311C64.558 43.256 64.0375 44.0828 63.2601 44.5856V44.5856L58.4007 47.6786L57.9835 47.9538C56.5621 48.8914 55.174 49.9324 53.6037 50.591C53.4367 50.6611 53.2845 50.7224 53.1576 50.7716V50.7716C52.67 50.9769 52.1566 50.2393 52.4722 49.8146C54.248 47.4251 55.2986 44.4645 55.2986 41.2586C55.2986 33.3286 48.8701 26.9 40.94 26.9C33.01 26.9 26.5814 33.3286 26.5814 41.2586C26.5814 42.6122 26.7687 43.922 27.1188 45.1636C27.2589 45.6603 26.7952 46.1461 26.3029 45.9915V45.9915L24.7683 45.4291L23.8732 45.1479L23.7699 45.1101C23.3307 44.9491 22.8438 44.8621 22.4665 44.5856V44.5856L21.3156 43.742V43.742C18.7894 42.1341 17.146 39.313 17.7596 36.382C20.0077 25.6417 29.5319 17.5756 40.94 17.5756C54.0198 17.5756 64.6231 28.1788 64.6231 41.2586Z" stroke="#FBF8F4" stroke-width="1.91629" stroke-linecap="round"/>
</svg>
