<svg width="20" height="21" viewBox="0 0 20 21" fill="none" xmlns="http://www.w3.org/2000/svg">
<g clip-path="url(#clip0_364_413)">
<path d="M19.2 10.2612C19.2 4.73832 14.9019 0.261169 9.6 0.261169C4.29806 0.261169 0 4.73832 0 10.2612C0 15.2524 3.51056 19.3895 8.1 20.1397V13.1518H5.6625V10.2612H8.1V8.05805C8.1 5.5518 9.53325 4.16742 11.7261 4.16742C12.7761 4.16742 13.875 4.36273 13.875 4.36273V6.82367H12.6645C11.472 6.82367 11.1 7.59457 11.1 8.38617V10.2612H13.7625L13.3369 13.1518H11.1V20.1397C15.6894 19.3895 19.2 15.2524 19.2 10.2612Z" fill="#391709"/>
</g>
<defs>
<clipPath id="clip0_364_413">
<rect width="19.2" height="20" fill="white" transform="translate(0 0.261169)"/>
</clipPath>
</defs>
</svg>
