<svg xmlns="http://www.w3.org/2000/svg" viewBox="0 0 575 326.59"><defs><style>.cls-1{fill:#391709;}</style></defs><g id="Layer_2" data-name="Layer 2"><g id="Layer_1-2" data-name="Layer 1"><path class="cls-1" d="M575,326.59H68.87V250.84L75,247.58l8.44-4.36,9.2-4.35,7.67-3.26,6.14-2.18,3.06-1.08,3.84-1.09,4.6-1.09,4.6-1.09,6.14-1.09a58.1,58.1,0,0,1,18.4,3.27c6.75,2.61,11,4,12.27,4.35l29.14,12,2.3,1.08,2.3,1.09,2.3,1.09a11.3,11.3,0,0,0,3.84,1.09l4.6,1.09,5.37,1.09,9.2,2.17,10.73,2.18,13,2.17,11.5,4.35,3.84,1.09,2.3,1.09,3.83,1.09,6.14,2.17,9.2,3.27,6.9,2.17,12.27,4.36,11.51,3.26c6.9,2.54,21.93,6.74,26.83,3.26l6.91-2.17,36-9.79c4.34-1.09,13.65-3.7,16.1-5.44l15.34-6.53,29.14-12,39.11-16.32a66.63,66.63,0,0,1,6.9-2.17c.77,0,2.3-1.09,7.67-1.09L506,229.08l9.2-1.09c7.93-1.45,25.31-5.87,31.45-12L575,198.62Z"/><path class="cls-1" d="M416.36,123.68a3,3,0,0,0-3.05-1.66c-.46.06-.87.23-1.32.33-3.46.78-9.2-3-12.14-4.11-5.41-2.08-10.85-4.31-15-7.58a75.82,75.82,0,0,0-8.49-6.42c-3.59-2.16-7.08-4.47-10.8-6.49-2.07-1.25-4.16-2.45-6.31-3.62-.92-.49-6.9-3-6.9-3.73l-16.57-9a20.16,20.16,0,0,1-2.67-1.62,6.34,6.34,0,0,1-.77-.68c-2.26-2.29-.79-5.28-4.19-6.81-2.92-1.31-6.51-1.58-9.51-2.78-5.5-2.19-10.33-5.25-16-7.16A80.22,80.22,0,0,0,293.43,60l-23.1-4.93A22.22,22.22,0,0,1,263.72,53a14.82,14.82,0,0,1-3.45-3.12c-2.9-3.24-5.73-8.39-11-9.88q-5.38-1.53-10.95-2.65a153,153,0,0,0-22.72-2.83,27.77,27.77,0,0,0-8.37.51,36,36,0,0,0-6.19,2.63,50.85,50.85,0,0,1-25.39,4.3,24.74,24.74,0,0,0-6.87-.09,16.93,16.93,0,0,0-5.72,2.68,129.91,129.91,0,0,1-34,14.69c-5.12,1.41-10.48,2.6-14.89,5s-4.75,4.49-6,8a6.71,6.71,0,0,1-3.83,3.68c-2.54,1.09-5.12.51-7.76.91A80.53,80.53,0,0,0,87.82,79Q79.3,81.25,71,84A298.46,298.46,0,0,0,39.12,96.53c-9,4.16-18.14,9.31-21,16.75-.84,2.22-1.13,4.65-3.09,6.46-2.3,2.13-6.24,2.81-9.61,4-4,1.34-5.47,3-5.45,6.09a1,1,0,0,0,.2.72,2.12,2.12,0,0,0,1.28.44c3,.35,6.09.42,9.15.49,2.19,0,3.82.15,5.56-.82a6.43,6.43,0,0,1,1.65-.71,2.34,2.34,0,0,1,1.8.27c2.78,2.11-1.92,5.46-2.62,7.38a2.15,2.15,0,0,0,.71,2.71,5.78,5.78,0,0,0,3.09.48c2.6-.09,5.52-.39,7.08-1.9.4-.38.68-.83,1.11-1.19a7.07,7.07,0,0,1,1.59-.93c2.56-1.22,6.23-3.92,9.51-3.64a8.14,8.14,0,0,1,2.41.68,56.82,56.82,0,0,1,7.3,3.58c1.61.94,3.91,3.64,6.14,3.54a3.53,3.53,0,0,0,2.54-1.54,4.87,4.87,0,0,1,2.15-1.92c2.23-.78,5.08.39,7.44.08,1.92-.25,3.69-1.19,5.59-1.59,2.32-.5,4.68-.88,7.06-1.21l12.78,7a2.34,2.34,0,0,0,.64.18l54,8.59a2.4,2.4,0,0,1,1.4.7l29.77,32.42a1.56,1.56,0,0,1,.24.35c1.72,3.18,23.57,20.53,21.86,28.92-1.75,8.56,0,36.64.09,37.67v.06c-.15,7.78-10.15,38.85,1.1,44.89a6.94,6.94,0,0,0,4.75.43c19.26-4.68,41.9-2.43,62-2.49,1.1,0,2.35,0,2.78-1a1.71,1.71,0,0,0,0-1.33c-3.38-8.68-6-12.39-14.21-18.31-6.58-4.75-16.51-12.12-19-18.88-5.1-14-.27-26.47.23-40.36a37,37,0,0,1,.43-5.54c-.22-.31-.67-1.59-1.5-5.63-2.28-11.11,23.49-31,29.68-40.58a2.2,2.2,0,0,1,1.38-.88l8-6.63,30.61-4.58c.32-.07,7.85-3.76,8.1-3.92l19.68-10.45c2.2,1.49,3.45,4.06,6.42,4.29a8.7,8.7,0,0,0,4.94-1.59c4.42-2.57,10.26-5.05,14-8.14,2.76-2.3,4.2-5.3,9.55-4.75a5.28,5.28,0,0,1,2.39.72,6.35,6.35,0,0,1,1.6,2.08c2.06,3.13,6.91,4.6,11.06,6.31a4.8,4.8,0,0,0,1.2.38,5.47,5.47,0,0,0,1.8-.14,32.56,32.56,0,0,1,8.6-.37c2.71.25,3.8,1.36,6.05,2.37,3,1.37,8.46,3.05,10.86.11A5.26,5.26,0,0,0,415,134a55,55,0,0,1,1.56-5.29A11.08,11.08,0,0,0,416.36,123.68Zm-399-6a2,2,0,0,1,.86-1.14A10.65,10.65,0,0,1,17.38,117.71ZM303.29,85c-2.39,8.12,14.2,7.73,13.69,13.85-6,3.61,3.2,5,6.67,6.68,7.31,3.22-4.67,4.58-5.46,7.23-8.62-.44-9.75-10.84-20.3-9.12-8-.11-16.1-.29-22.68,3.46-4.83,1-4.78-4.61-9.36-1.57-8.5,3.56-14.89-6.75-5.81-10.39C280.42,92.29,288,102.81,303.29,85Zm-31.55-6.6c2,8-28.87,14.66-28.25,6.67C242.23,77.69,267.59,71.41,271.74,78.37ZM253.8,116.7c4.06,4.51,24.78.91,17.94,8.56-4.55,3.69-7.92-3.14-12.57-1.26-4.32,2.79-9.47-3.7-14.12-1.45-3.21,2-1.56-1-2.86-2.45C246.35,119.47,248.17,115,253.8,116.7ZM193.74,57.1c7.37-4.49,39.56.75,31.63,10.07C213.33,69.92,200.31,65,188,64,182.11,65.66,192.72,59.77,193.74,57.1Zm-15.51-1.64c-10.73,9-7,10.72-23.66,2.58C162.23,57.06,178.18,47.73,178.23,55.46ZM69.8,103.16c6.13-3.87,24.44.52,22.11,3.27-9.35,0-17.16,4.95-26.26,6.61C75.07,109.41,69.94,108.76,69.8,103.16Zm67.4,40.48c-9.23-1.26-14.93-3.16-21.23-4.47-3.6-.65-18.74-2.76-19.75-3.24l-.12-.05-4.64-2.55c7.42-1,15.44-2.51,20.79-6.47l26.58,13.77C140.94,141.61,139.65,144,137.2,143.64Zm17.8,4.13-40-23.45c1.43-1.67,3.33-3.8,5.88-3.24,1.53.34,2.3,1.54,3,2.57,4.65,6.37,15.59,9.83,25.21,8.26l8.91,14.23C158.93,147.53,156.56,148.79,155,147.77Zm32,32.91-25.84-38.8-.14-.27-6.16-11.25c4.88-1.78,9.42-4.24,14.82-4.57,3.68-.22,7.3.6,10.91,1.16a80.11,80.11,0,0,0,25.44-.17c4.37-.75,8.8-1.86,13.21-2.24-3.35,2-6.12,3.77-6.75,4.13l-24.86,14.48c-3.34,1.94-4.91,5.07-4.08,8.11l7.72,28.38C191.79,181.54,188.16,182.42,187,180.68Zm28.58-29.59-6.71,35.29c-.37,2-4.3,1.87-4.5-.1L192.56,149c-3.55-3.4,8.79-8.87,9-9.15l14.07-8.91c.08,0,4-3.13,8.14-6.46a20.64,20.64,0,0,1,10.85,3.77c1.21.8,2.3,1.7,3.58,2.45a11.55,11.55,0,0,0,2,.94l-24.08,18.57A1.49,1.49,0,0,0,215.58,151.09Zm19.29,20.12c-7.31,2.69-14-5.67-13.5-6.54l.59-4.32c.79-5.71,3.89-11.12,8.91-15.55l15.39-13.57.5-.06c2-.3,4.14-2.5,6.29-1.38,2.75,1.43,1.06,4.51,3.81,6.39a16.78,16.78,0,0,0,8.71,2.47L252,153.55C251.15,154.36,242.66,168.34,234.87,171.21Zm72-26.15c-.23.11-5.62,1.32-5.89,1.37l-26.26,4a2.63,2.63,0,0,0-1.23.52l-9.76,8c-1.81,1.49-5-.18-3.67-1.91l18.66-23.92a9.32,9.32,0,0,1,2.1-1.27c3.73-1.42,10.76-1.32,14.74-.64a34.06,34.06,0,0,0,3.48.56,5,5,0,0,0,3.28-.76c.83-.66,1.25-1.87,1.84-2.67a14.26,14.26,0,0,0,1.92-3,7.83,7.83,0,0,1,1.1-2.32A3.12,3.12,0,0,1,310,122a3.63,3.63,0,0,1,2.12,1.47c.65.77,1.3,1.55,2,2.32a21.59,21.59,0,0,0,5.13,4.61c1.78,1.12,3.28,3.06,5.58,3.69a10.55,10.55,0,0,0,3.56.21Z"/><path class="cls-1" d="M124.69,256.06c.27.36.18-.75,0,0Z"/><path class="cls-1" d="M485.54,135.42h-2A131.41,131.41,0,1,1,445.05,42.5a131,131,0,0,1,38.49,92.92h4A135.42,135.42,0,1,0,352.14,270.83,135.42,135.42,0,0,0,487.55,135.42Z"/></g></g></svg>