<svg width="20" height="21" viewBox="0 0 20 21" fill="none" xmlns="http://www.w3.org/2000/svg">
<g clip-path="url(#clip0_364_417)">
<path d="M18.1787 0.261169H1.81749C1.03374 0.261169 0.399994 0.905701 0.399994 1.70258V18.8159C0.399994 19.6127 1.03374 20.2612 1.81749 20.2612H18.1787C18.9625 20.2612 19.6 19.6127 19.6 18.8198V1.70258C19.6 0.905701 18.9625 0.261169 18.1787 0.261169ZM6.09624 17.3041H3.24624V7.75726H6.09624V17.3041ZM4.67124 6.45648C3.75624 6.45648 3.01749 5.68695 3.01749 4.73773C3.01749 3.78851 3.75624 3.01898 4.67124 3.01898C5.58249 3.01898 6.32124 3.78851 6.32124 4.73773C6.32124 5.68304 5.58249 6.45648 4.67124 6.45648ZM16.7612 17.3041H13.915V12.6635C13.915 11.558 13.8962 10.1323 12.4337 10.1323C10.9525 10.1323 10.7275 11.3393 10.7275 12.5854V17.3041H7.88499V7.75726H10.615V9.06195H10.6525C11.0312 8.31195 11.9612 7.51898 13.345 7.51898C16.2287 7.51898 16.7612 9.49554 16.7612 12.0659V17.3041Z" fill="#391709"/>
</g>
<defs>
<clipPath id="clip0_364_417">
<rect width="19.2" height="20" fill="white" transform="translate(0.399994 0.261169)"/>
</clipPath>
</defs>
</svg>
