<svg width="216" height="51" viewBox="0 0 216 51" fill="none" xmlns="http://www.w3.org/2000/svg">
<path d="M44.6805 40.9957C47.378 37.6004 48.5238 34.4449 49.3644 31.51C50.2227 28.5133 50.1632 26.2395 50.117 24.4756C50.1092 24.1791 50.1018 23.8971 50.0993 23.6284C50.1526 24.2888 50.1797 24.9565 50.1797 25.6306C50.1797 39.1887 39.1887 50.1797 25.6306 50.1797C12.0725 50.1797 1.08142 39.1887 1.08142 25.6306C1.08142 12.0725 12.0725 1.08142 25.6306 1.08142C37.1811 1.08142 46.8684 9.05845 49.4841 19.8039C49.9409 21.6807 49.2367 23.6115 47.3758 24.1292V24.1292L47.3743 24.1296C47.3116 24.1471 47.2516 24.1638 47.1947 24.1799L46.2423 24.3544V24.3544C45.9857 24.425 45.7294 24.2398 45.7073 23.9746C44.8458 13.6641 36.2044 5.56474 25.6713 5.56474C15.0295 5.56474 6.31872 13.8321 5.61116 24.2944C5.59397 24.5485 5.43989 24.7755 5.20676 24.878V24.878L4.25429 25.4016L3.46057 25.9252L2.71282 26.4732C2.57635 26.5732 2.44186 26.6758 2.30946 26.7812C2.08685 26.9583 1.74295 27.2324 1.635 27.3214C1.52146 27.4149 1.36505 27.5462 1.2795 27.6181C1.24084 27.6506 1.22192 27.7008 1.22935 27.7508V27.7508C1.76896 31.3787 2.33213 35.1651 6.10818 40.3436C9.06638 44.4006 14.0797 48.1786 20.5256 49.4731C23.1716 50.3426 26.2353 50.1644 29.4153 49.7992C34.909 49.1683 40.0366 46.1212 43.2781 42.626C43.7877 42.0765 44.2536 41.5331 44.6805 40.9957ZM44.6805 40.9957L44.3028 39.9396C44.0478 39.2267 43.2781 38.6781 43.2781 37.9211V37.9211C43.2781 37.8682 43.1597 37.8133 43.002 37.7643C42.5983 37.6389 42.1863 37.5356 41.8011 37.3617V37.3617C41.171 37.0771 40.4874 36.9299 39.796 36.9299H39.7052H39.4162H39.211C38.6192 36.9299 38.0292 36.8404 37.4751 36.6326V36.6326C37.0786 36.4839 36.9795 36.4839 36.4001 36.2857V36.2857C35.9578 36.1343 35.511 35.9766 35.0594 35.856L34.8126 35.7901C34.5768 35.691 34.0456 35.4828 33.8077 35.4432C33.7982 35.4416 33.7888 35.4398 33.7797 35.4379C33.4851 35.3767 33.3028 35.0869 33.0901 34.8742V34.8742C32.8118 34.5959 32.4778 34.3794 32.1101 34.2389L31.8314 34.1324C31.5254 34.0155 31.2068 33.9348 30.8821 33.8919L28.701 33.6043M28.701 33.6043C28.193 34.1628 26.6373 33.4879 25.9229 33.0807L24.7324 32.5571L23.4624 31.859L22.748 31.51L21.1606 30.6373L20.8989 30.5222C20.809 30.4827 20.7238 30.4336 20.6447 30.3756V30.3756C20.5655 30.3176 20.4803 30.2684 20.3905 30.2289L20.1288 30.1138V30.1138C19.3389 29.6506 18.4753 29.2959 17.5888 29.0666V29.0666V29.0666C17.4264 29.0156 17.2949 28.894 17.238 28.7335C16.9103 27.81 16.7319 26.8158 16.7319 25.78C16.7319 20.9029 20.6856 16.9493 25.5626 16.9493C30.4397 16.9493 34.3933 20.9029 34.3933 25.78C34.3933 27.6706 33.7992 29.4224 32.7875 30.8589C31.9782 32.008 30.7107 32.7098 29.4153 33.2552V33.2552L28.701 33.6043ZM25.6306 1C38.2247 1 48.6112 10.4524 50.0826 22.6498C50.0838 22.6595 50.0964 22.6628 50.1019 22.6547V22.6547C50.1082 22.6455 50.1229 22.6505 50.1221 22.6616C50.1171 22.732 50.113 22.8034 50.1097 22.876C50.1095 22.8794 50.1096 22.8828 50.11 22.8862C50.2099 23.7872 50.2612 24.7029 50.2612 25.6306C50.2612 39.2337 39.2337 50.2612 25.6306 50.2612C12.0275 50.2612 1 39.2337 1 25.6306C1 12.0275 12.0275 1 25.6306 1ZM25.6713 5.64616C15.2639 5.64616 6.71091 13.5855 5.73831 23.7379C5.69562 24.1835 6.13578 24.5085 6.55609 24.3544V24.3544V24.3544C6.9775 24.2386 7.41535 24.1692 7.8448 24.2502C8.22779 24.3225 8.68965 24.4598 9.096 24.7035C9.76547 25.105 10.1967 25.3247 10.3479 25.3935C10.36 25.399 10.3716 25.4052 10.3828 25.4123V25.4123C10.5565 25.5229 10.785 25.3981 10.793 25.1924C11.1015 17.3014 17.5961 10.9989 25.5626 10.9989C33.7259 10.9989 40.3436 17.6166 40.3436 25.78V25.78C40.3436 26.3912 41.0279 26.8027 41.5411 26.4708L43.4642 25.2271C43.6759 25.1107 44.1151 24.878 44.1786 24.878C44.2003 24.878 44.2281 24.8649 44.2684 24.8458C44.3654 24.7999 44.5353 24.7195 44.8697 24.7056C44.9377 24.7027 45.0055 24.6944 45.0712 24.6763V24.6763C45.4167 24.5813 45.6504 24.2566 45.6192 23.8996C44.7224 13.6699 36.1339 5.64616 25.6713 5.64616ZM40.2622 25.78C40.2622 26.0031 40.2572 26.225 40.2474 26.4456C40.2218 27.0197 39.8988 27.5329 39.4162 27.8449V27.8449L36.4001 29.7647L36.1911 29.9026C35.2757 30.5064 34.3807 31.176 33.3675 31.5954C33.2854 31.6294 33.2103 31.6595 33.1458 31.6845V31.6845C32.8432 31.8119 32.5245 31.3541 32.7204 31.0905C33.8226 29.6074 34.4747 27.7698 34.4747 25.78C34.4747 20.858 30.4846 16.8679 25.5626 16.8679C20.6406 16.8679 16.6505 20.858 16.6505 25.78C16.6505 26.6201 16.7668 27.4331 16.9841 28.2037C17.071 28.512 16.7832 28.8136 16.4776 28.7176V28.7176L15.5252 28.3685L14.9696 28.194L14.9055 28.1705C14.6328 28.0706 14.3307 28.0166 14.0965 27.8449V27.8449L13.3821 27.3214V27.3214C11.8141 26.3234 10.7942 24.5724 11.175 22.7532C12.5703 16.0869 18.4818 11.0804 25.5626 11.0804C33.681 11.0804 40.2622 17.6616 40.2622 25.78Z" stroke="#391709" strokeWidth="1.2341" strokeLinecap="round"/>
<path d="M70.9352 3.60749L74.6489 25.6379H70.0225L69.7707 24.1273H66.4662L66.2144 25.6379H62.0916L65.8367 3.60749H70.9352ZM66.9382 21.1374H69.2986L68.1342 13.9933L66.9382 21.1374ZM75.2766 3.60749H85.4735V7.82474H80.1233V12.3882H84.7182V16.6054H80.1233V25.6379H75.2766V3.60749ZM93.491 3.60749C95.9773 3.60749 97.8342 5.49581 97.8342 8.10799V10.6258C97.8342 13.1435 96.8271 14.1506 95.0961 14.6227C96.8271 15.0948 97.8342 16.1019 97.8342 18.6196V25.6379H92.9875V18.6826C92.9875 17.6755 92.7042 16.7943 91.4454 16.7943H90.9418V25.6379H86.0951V3.60749H93.491ZM90.9418 12.3882H91.4454C92.7042 12.3882 92.9875 11.5699 92.9875 10.4999V9.68159C92.9875 8.67449 92.7042 7.79327 91.4454 7.79327H90.9418V12.3882ZM98.4503 3.60749H103.297V25.6379H98.4503V3.60749ZM103.921 10.1851C103.921 5.90495 105.904 3.60749 110.184 3.60749C114.464 3.60749 116.447 5.65317 116.447 9.93337V11.4755H111.915V9.93337C111.915 8.7689 111.506 8.01357 110.341 8.01357C109.177 8.01357 108.768 8.7689 108.768 9.93337V19.312C108.768 20.4765 109.177 21.2318 110.341 21.2318C111.506 21.2318 111.915 20.445 111.915 19.2806V17.644H116.447V19.2806C116.447 23.5608 114.464 25.6379 110.184 25.6379C105.904 25.6379 103.921 23.309 103.921 19.0288V10.1851ZM125.919 3.60749L129.633 25.6379H125.006L124.755 24.1273H121.45L121.198 25.6379H117.075L120.821 3.60749H125.919ZM121.922 21.1374H124.282L123.118 13.9933L121.922 21.1374ZM130.26 3.60749H135.862L138.852 13.8674V3.60749H142.975V25.6379H137.656L134.383 14.4024V25.6379H130.26V3.60749ZM154.775 3.60749C157.262 3.60749 159.119 5.49581 159.119 8.10799V13.6471C159.119 16.2592 157.262 18.1476 154.775 18.1476H152.226V25.6379H147.38V3.60749H154.775ZM152.226 13.9618H152.73C153.989 13.9618 154.272 13.1435 154.272 12.0735V9.68159C154.272 8.67449 153.989 7.79327 152.73 7.79327H152.226V13.9618ZM159.735 3.60749H164.581V21.578H169.837V25.6379H159.735V3.60749ZM179.305 3.60749L183.018 25.6379H178.392L178.14 24.1273H174.836L174.584 25.6379H170.461L174.206 3.60749H179.305ZM175.308 21.1374H177.668L176.504 13.9933L175.308 21.1374ZM183.646 3.60749H188.493V25.6379H183.646V3.60749ZM189.117 3.60749H194.719L197.709 13.8674V3.60749H201.832V25.6379H196.513L193.24 14.4024V25.6379H189.117V3.60749ZM206.641 19.4379C206.641 20.445 207.46 21.2318 208.467 21.2318C209.474 21.2318 210.135 20.445 210.135 19.4379C210.135 17.9587 208.089 16.8572 206.893 16.1019C203.998 14.2765 202.519 13.2065 202.519 9.77601C202.519 5.71612 205.036 3.60749 209.096 3.60749C213.093 3.60749 214.824 5.81053 214.824 9.80748V11.3181H210.638V9.80748C210.638 8.80037 210.009 8.01357 209.002 8.01357C207.995 8.01357 207.397 8.80037 207.397 9.80748C207.397 11.1608 209.379 12.1679 210.512 12.8603C213.03 14.4968 214.981 16.4166 214.981 19.4064C214.981 23.4663 212.621 25.6379 208.561 25.6379C204.501 25.6379 202.456 23.4978 202.456 19.4379V17.644H206.641V19.4379Z" fill="#391709"/>
<path d="M62.113 42.2496C62.113 41.6128 62.2224 40.9809 62.4413 40.3539C62.6702 39.7171 62.9986 39.1498 63.4265 38.6523C63.8544 38.1547 64.3818 37.7517 65.0087 37.4432C65.6356 37.1248 66.3472 36.9656 67.1432 36.9656C68.0886 36.9656 68.8946 37.1795 69.5614 37.6074C70.2281 38.0353 70.7256 38.5926 71.054 39.2792L70.2181 39.7867C70.049 39.4384 69.845 39.1449 69.6061 38.906C69.3673 38.6672 69.1086 38.4732 68.83 38.3239C68.5513 38.1746 68.2627 38.0702 67.9642 38.0104C67.6657 37.9408 67.3721 37.906 67.0835 37.906C66.4467 37.906 65.8844 38.0353 65.3968 38.2941C64.9092 38.5528 64.4962 38.8911 64.1579 39.3091C63.8295 39.727 63.5807 40.1997 63.4116 40.7271C63.2424 41.2446 63.1578 41.772 63.1578 42.3093C63.1578 42.8964 63.2573 43.4587 63.4564 43.996C63.6653 44.5334 63.944 45.0111 64.2922 45.429C64.6505 45.837 65.0684 46.1654 65.5461 46.4142C66.0337 46.653 66.5611 46.7724 67.1283 46.7724C67.4269 46.7724 67.7304 46.7376 68.0388 46.6679C68.3573 46.5883 68.6608 46.4689 68.9494 46.3097C69.2479 46.1405 69.5216 45.9365 69.7703 45.6977C70.0191 45.4489 70.2281 45.1504 70.3973 44.8021L71.263 45.2499C71.0938 45.6479 70.855 46.0012 70.5465 46.3097C70.238 46.6082 69.8947 46.862 69.5166 47.0709C69.1384 47.2799 68.7354 47.4391 68.3075 47.5486C67.8896 47.6581 67.4766 47.7128 67.0686 47.7128C66.3422 47.7128 65.6755 47.5536 65.0684 47.2351C64.4614 46.9167 63.939 46.5037 63.5011 45.9962C63.0633 45.4788 62.72 44.8966 62.4712 44.2498C62.2324 43.593 62.113 42.9263 62.113 42.2496ZM76.5268 47.6979C75.7904 47.6979 75.1137 47.5486 74.4967 47.2501C73.8897 46.9416 73.3673 46.5386 72.9294 46.041C72.4916 45.5335 72.1532 44.9563 71.9144 44.3095C71.6756 43.6627 71.5562 43.0009 71.5562 42.3243C71.5562 41.6177 71.6806 40.9411 71.9293 40.2942C72.1881 39.6474 72.5413 39.0752 72.9891 38.5777C73.4369 38.0801 73.9643 37.687 74.5714 37.3985C75.1784 37.0999 75.8352 36.9507 76.5417 36.9507C77.2781 36.9507 77.9498 37.1099 78.5568 37.4283C79.1738 37.7368 79.6962 38.1448 80.1241 38.6523C80.5619 39.1598 80.9003 39.737 81.1391 40.3838C81.3779 41.0207 81.4973 41.6725 81.4973 42.3392C81.4973 43.0457 81.368 43.7224 81.1093 44.3692C80.8605 45.016 80.5122 45.5882 80.0644 46.0858C79.6265 46.5734 79.1041 46.9665 78.4971 47.265C77.8901 47.5536 77.2333 47.6979 76.5268 47.6979ZM72.601 42.3243C72.601 42.9014 72.6956 43.4587 72.8847 43.996C73.0737 44.5235 73.3424 44.9961 73.6907 45.4141C74.039 45.8221 74.452 46.1505 74.9296 46.3992C75.4073 46.6381 75.9396 46.7575 76.5268 46.7575C77.1238 46.7575 77.6662 46.6281 78.1538 46.3694C78.6414 46.1107 79.0543 45.7723 79.3927 45.3544C79.731 44.9364 79.9898 44.4637 80.1689 43.9363C80.3579 43.4089 80.4525 42.8716 80.4525 42.3243C80.4525 41.7471 80.353 41.1948 80.1539 40.6674C79.9649 40.13 79.6962 39.6574 79.3479 39.2494C78.9996 38.8414 78.5866 38.518 78.109 38.2791C77.6313 38.0303 77.1039 37.906 76.5268 37.906C75.9297 37.906 75.3874 38.0353 74.8998 38.2941C74.4121 38.5428 73.9992 38.8762 73.6608 39.2941C73.3225 39.7121 73.0588 40.1848 72.8697 40.7122C72.6906 41.2396 72.601 41.7769 72.601 42.3243ZM83.794 38.9658V47.6232H82.764V37.0253H83.5701L90.5856 45.847V37.0402H91.6155V47.6232H90.7199L83.794 38.9658ZM99.787 39.0105C99.4884 38.6722 99.0854 38.3985 98.5779 38.1896C98.0804 37.9806 97.5181 37.8761 96.8912 37.8761C95.9458 37.8761 95.2592 38.0552 94.8313 38.4135C94.4034 38.7618 94.1895 39.2394 94.1895 39.8464C94.1895 40.1649 94.2442 40.4286 94.3537 40.6375C94.4731 40.8366 94.6522 41.0107 94.891 41.16C95.1398 41.3092 95.4483 41.4386 95.8165 41.5481C96.1946 41.6575 96.6374 41.767 97.1449 41.8765C97.7122 41.9959 98.2197 42.1302 98.6675 42.2795C99.1153 42.4188 99.4984 42.6029 99.8168 42.8318C100.135 43.0507 100.379 43.3243 100.548 43.6527C100.717 43.9712 100.802 44.3692 100.802 44.8469C100.802 45.3345 100.707 45.7574 100.518 46.1156C100.329 46.4739 100.066 46.7724 99.7273 47.0112C99.3889 47.2501 98.9859 47.4292 98.5182 47.5486C98.0505 47.6581 97.543 47.7128 96.9957 47.7128C95.3338 47.7128 93.9158 47.2003 92.7416 46.1753L93.2491 45.3245C93.6372 45.7325 94.1596 46.0808 94.8164 46.3694C95.4732 46.648 96.2046 46.7873 97.0106 46.7873C97.8565 46.7873 98.5182 46.6381 98.9959 46.3395C99.4735 46.0311 99.7123 45.5683 99.7123 44.9514C99.7123 44.623 99.6427 44.3493 99.5034 44.1304C99.374 43.9015 99.175 43.7075 98.9063 43.5482C98.6376 43.3791 98.2993 43.2348 97.8913 43.1154C97.4932 42.996 97.0305 42.8765 96.5031 42.7571C95.9458 42.6278 95.4582 42.4934 95.0403 42.3541C94.6223 42.2148 94.2691 42.0407 93.9805 41.8317C93.7019 41.6227 93.4879 41.3739 93.3386 41.0853C93.1993 40.7868 93.1297 40.4236 93.1297 39.9957C93.1297 39.5081 93.2192 39.0752 93.3983 38.6971C93.5874 38.309 93.8461 37.9905 94.1745 37.7418C94.5129 37.483 94.9109 37.289 95.3687 37.1596C95.8364 37.0203 96.3489 36.9507 96.9061 36.9507C97.6027 36.9507 98.2246 37.0601 98.772 37.279C99.3292 37.488 99.8317 37.7865 100.28 38.1746L99.787 39.0105ZM109.076 46.6978V47.6232H101.956V37.0253H108.942V37.9507H102.986V41.772H108.18V42.6526H102.986V46.6978H109.076ZM110.364 47.6232V37.0253H114.827C115.285 37.0253 115.708 37.1248 116.096 37.3238C116.484 37.5129 116.817 37.7666 117.096 38.0851C117.374 38.3936 117.588 38.7468 117.738 39.1449C117.897 39.5429 117.976 39.9459 117.976 40.3539C117.976 40.742 117.917 41.1152 117.797 41.4734C117.688 41.8217 117.529 42.1402 117.32 42.4287C117.111 42.7074 116.862 42.9462 116.573 43.1452C116.285 43.3343 115.961 43.4637 115.603 43.5333L118.215 47.6232H117.036L114.528 43.7124H111.394V47.6232H110.364ZM111.394 42.787H114.872C115.18 42.787 115.459 42.7223 115.708 42.5929C115.966 42.4536 116.185 42.2695 116.364 42.0407C116.543 41.8118 116.683 41.553 116.782 41.2645C116.882 40.9759 116.932 40.6724 116.932 40.3539C116.932 40.0355 116.872 39.732 116.752 39.4434C116.643 39.1449 116.489 38.8861 116.29 38.6672C116.101 38.4483 115.872 38.2741 115.603 38.1448C115.344 38.0154 115.071 37.9507 114.782 37.9507H111.394V42.787ZM119.105 37.0253L122.897 46.3246L126.658 37.0253H127.763L123.344 47.6232H122.434L118.016 37.0253H119.105ZM126.599 47.6232L131.033 37.0253H131.884L136.317 47.6232H135.197L133.824 44.3095H129.062L127.704 47.6232H126.599ZM131.466 38.2493L129.286 43.4885H133.585L131.466 38.2493ZM143.577 37.9507H139.801V47.6232H138.756V37.9507H134.98V37.0253H143.577V37.9507ZM144.462 47.6232V37.0402H145.492V47.6232H144.462ZM151.732 47.6979C150.995 47.6979 150.319 47.5486 149.702 47.2501C149.095 46.9416 148.572 46.5386 148.134 46.041C147.696 45.5335 147.358 44.9563 147.119 44.3095C146.88 43.6627 146.761 43.0009 146.761 42.3243C146.761 41.6177 146.885 40.9411 147.134 40.2942C147.393 39.6474 147.746 39.0752 148.194 38.5777C148.642 38.0801 149.169 37.687 149.776 37.3985C150.383 37.0999 151.04 36.9507 151.747 36.9507C152.483 36.9507 153.155 37.1099 153.762 37.4283C154.379 37.7368 154.901 38.1448 155.329 38.6523C155.767 39.1598 156.105 39.737 156.344 40.3838C156.583 41.0207 156.702 41.6725 156.702 42.3392C156.702 43.0457 156.573 43.7224 156.314 44.3692C156.065 45.016 155.717 45.5882 155.269 46.0858C154.831 46.5734 154.309 46.9665 153.702 47.265C153.095 47.5536 152.438 47.6979 151.732 47.6979ZM147.806 42.3243C147.806 42.9014 147.9 43.4587 148.089 43.996C148.279 44.5235 148.547 44.9961 148.896 45.4141C149.244 45.8221 149.657 46.1505 150.134 46.3992C150.612 46.6381 151.144 46.7575 151.732 46.7575C152.329 46.7575 152.871 46.6281 153.359 46.3694C153.846 46.1107 154.259 45.7723 154.598 45.3544C154.936 44.9364 155.195 44.4637 155.374 43.9363C155.563 43.4089 155.657 42.8716 155.657 42.3243C155.657 41.7471 155.558 41.1948 155.359 40.6674C155.17 40.13 154.901 39.6574 154.553 39.2494C154.204 38.8414 153.791 38.518 153.314 38.2791C152.836 38.0303 152.309 37.906 151.732 37.906C151.135 37.906 150.592 38.0353 150.105 38.2941C149.617 38.5428 149.204 38.8762 148.866 39.2941C148.527 39.7121 148.264 40.1848 148.075 40.7122C147.895 41.2396 147.806 41.7769 147.806 42.3243ZM158.999 38.9658V47.6232H157.969V37.0253H158.775L165.79 45.847V37.0402H166.82V47.6232H165.925L158.999 38.9658ZM178.97 37.9507H175.194V47.6232H174.149V37.9507H170.372V37.0253H178.97V37.9507ZM179.855 47.6232V37.0253H184.318C184.775 37.0253 185.198 37.1248 185.586 37.3238C185.974 37.5129 186.308 37.7666 186.586 38.0851C186.865 38.3936 187.079 38.7468 187.228 39.1449C187.388 39.5429 187.467 39.9459 187.467 40.3539C187.467 40.742 187.407 41.1152 187.288 41.4734C187.179 41.8217 187.019 42.1402 186.81 42.4287C186.601 42.7074 186.353 42.9462 186.064 43.1452C185.775 43.3343 185.452 43.4637 185.094 43.5333L187.706 47.6232H186.527L184.019 43.7124H180.884V47.6232H179.855ZM180.884 42.787H184.362C184.671 42.787 184.949 42.7223 185.198 42.5929C185.457 42.4536 185.676 42.2695 185.855 42.0407C186.034 41.8118 186.173 41.553 186.273 41.2645C186.372 40.9759 186.422 40.6724 186.422 40.3539C186.422 40.0355 186.363 39.732 186.243 39.4434C186.134 39.1449 185.979 38.8861 185.78 38.6672C185.591 38.4483 185.362 38.2741 185.094 38.1448C184.835 38.0154 184.561 37.9507 184.273 37.9507H180.884V42.787ZM193.202 46.7575C193.869 46.7575 194.421 46.6331 194.859 46.3843C195.307 46.1256 195.66 45.7922 195.919 45.3842C196.188 44.9663 196.372 44.4936 196.471 43.9662C196.581 43.4388 196.635 42.9064 196.635 42.369V37.0253H197.68V42.369C197.68 43.0855 197.601 43.7672 197.442 44.414C197.282 45.0509 197.024 45.6131 196.665 46.1007C196.317 46.5883 195.859 46.9764 195.292 47.265C194.725 47.5536 194.033 47.6979 193.217 47.6979C192.371 47.6979 191.665 47.5486 191.098 47.2501C190.53 46.9416 190.073 46.5386 189.724 46.041C189.376 45.5434 189.127 44.9762 188.978 44.3394C188.829 43.7025 188.754 43.0457 188.754 42.369V37.0253H189.784V42.369C189.784 42.9263 189.839 43.4686 189.948 43.996C190.058 44.5235 190.242 44.9912 190.501 45.3992C190.769 45.8072 191.123 46.1355 191.56 46.3843C191.998 46.6331 192.546 46.7575 193.202 46.7575ZM205.664 39.0105C205.366 38.6722 204.963 38.3985 204.455 38.1896C203.958 37.9806 203.396 37.8761 202.769 37.8761C201.823 37.8761 201.137 38.0552 200.709 38.4135C200.281 38.7618 200.067 39.2394 200.067 39.8464C200.067 40.1649 200.122 40.4286 200.231 40.6375C200.35 40.8366 200.53 41.0107 200.768 41.16C201.017 41.3092 201.326 41.4386 201.694 41.5481C202.072 41.6575 202.515 41.767 203.022 41.8765C203.59 41.9959 204.097 42.1302 204.545 42.2795C204.993 42.4188 205.376 42.6029 205.694 42.8318C206.013 43.0507 206.256 43.3243 206.426 43.6527C206.595 43.9712 206.679 44.3692 206.679 44.8469C206.679 45.3345 206.585 45.7574 206.396 46.1156C206.207 46.4739 205.943 46.7724 205.605 47.0112C205.266 47.2501 204.863 47.4292 204.396 47.5486C203.928 47.6581 203.42 47.7128 202.873 47.7128C201.211 47.7128 199.793 47.2003 198.619 46.1753L199.126 45.3245C199.515 45.7325 200.037 46.0808 200.694 46.3694C201.351 46.648 202.082 46.7873 202.888 46.7873C203.734 46.7873 204.396 46.6381 204.873 46.3395C205.351 46.0311 205.59 45.5683 205.59 44.9514C205.59 44.623 205.52 44.3493 205.381 44.1304C205.251 43.9015 205.052 43.7075 204.784 43.5482C204.515 43.3791 204.177 43.2348 203.769 43.1154C203.371 42.996 202.908 42.8765 202.381 42.7571C201.823 42.6278 201.336 42.4934 200.918 42.3541C200.5 42.2148 200.146 42.0407 199.858 41.8317C199.579 41.6227 199.365 41.3739 199.216 41.0853C199.077 40.7868 199.007 40.4236 199.007 39.9957C199.007 39.5081 199.097 39.0752 199.276 38.6971C199.465 38.309 199.724 37.9905 200.052 37.7418C200.39 37.483 200.788 37.289 201.246 37.1596C201.714 37.0203 202.226 36.9507 202.784 36.9507C203.48 36.9507 204.102 37.0601 204.649 37.279C205.207 37.488 205.709 37.7865 206.157 38.1746L205.664 39.0105ZM215.255 37.9507H211.478V47.6232H210.433V37.9507H206.657V37.0253H215.255V37.9507Z" fill="#391709"/>
</svg>
