<svg xmlns="http://www.w3.org/2000/svg" viewBox="0 0 971 187"><defs><style>.cls-1{fill:#391709;}</style></defs><g id="Layer_2" data-name="Layer 2"><g id="Layer_1-2" data-name="Layer 1"><path class="cls-1" d="M329.23,187H39.43V143.63L43,141.76l4.83-2.49,5.27-2.5,4.39-1.86L61,133.66l1.76-.62,2.19-.63,2.64-.62,2.63-.62,3.51-.62a33.27,33.27,0,0,1,10.54,1.86c3.86,1.5,6.29,2.29,7,2.5l16.68,6.85,1.32.62,1.32.62,1.31.63a6.64,6.64,0,0,0,2.2.62l2.63.62,3.08.63,5.27,1.24L131.2,148l7.47,1.24,6.58,2.49,2.2.63,1.32.62,2.19.62,3.51,1.25,5.27,1.87,4,1.24,7,2.5,6.59,1.86c3.95,1.46,12.56,3.87,15.37,1.87l3.95-1.24,20.63-5.61c2.49-.62,7.82-2.12,9.23-3.11l8.78-3.74L252,143.63l22.4-9.35A38.22,38.22,0,0,1,278.3,133a14.25,14.25,0,0,1,4.39-.63l7-1.24,5.27-.62c4.54-.84,14.49-3.37,18-6.86l16.24-10Z"/><path class="cls-1" d="M238.4,70.82a1.69,1.69,0,0,0-1.75-.95c-.26,0-.5.13-.75.18-2,.45-5.27-1.7-7-2.35a33.29,33.29,0,0,1-8.59-4.34,43.29,43.29,0,0,0-4.86-3.68c-2.05-1.23-4.05-2.55-6.18-3.71-1.19-.71-2.38-1.4-3.62-2.07-.52-.28-3.95-1.75-3.95-2.14l-9.48-5.14a11.53,11.53,0,0,1-1.53-.93,4.19,4.19,0,0,1-.45-.39c-1.29-1.31-.45-3-2.39-3.9-1.68-.75-3.73-.9-5.45-1.59-3.15-1.26-5.91-3-9.17-4.1A47.22,47.22,0,0,0,168,34.38l-13.22-2.83A12.32,12.32,0,0,1,151,30.32a8.71,8.71,0,0,1-2-1.78c-1.65-1.86-3.27-4.81-6.27-5.66-2.05-.58-4.15-1.09-6.27-1.52a87.78,87.78,0,0,0-13-1.62,16.61,16.61,0,0,0-4.79.29,21.16,21.16,0,0,0-3.55,1.51A29,29,0,0,1,100.6,24,14.46,14.46,0,0,0,96.66,24a9.89,9.89,0,0,0-3.28,1.53A73.91,73.91,0,0,1,73.92,33.9c-2.93.81-6,1.48-8.52,2.84S62.67,39.31,62,41.3a3.83,3.83,0,0,1-2.19,2.11c-1.46.62-2.93.29-4.44.52a45,45,0,0,0-5,1.28q-4.87,1.3-9.61,2.87A168.76,168.76,0,0,0,22.4,55.27c-5.13,2.38-10.39,5.33-12,9.59-.48,1.27-.65,2.67-1.76,3.7-1.32,1.22-3.58,1.61-5.51,2.26C.83,71.59,0,72.56,0,74.31a.61.61,0,0,0,.11.41A1.21,1.21,0,0,0,.84,75c1.74.2,3.5.24,5.25.28a5.66,5.66,0,0,0,3.18-.47,3.53,3.53,0,0,1,1-.4,1.31,1.31,0,0,1,1,.15c1.6,1.21-1.1,3.13-1.49,4.23a1.22,1.22,0,0,0,.4,1.55,3.3,3.3,0,0,0,1.77.27c1.49,0,3.16-.22,4.06-1.08.22-.22.38-.48.63-.69a4.44,4.44,0,0,1,.91-.53C19,77.59,21.09,76,23,76.2a4.63,4.63,0,0,1,1.39.39,32.94,32.94,0,0,1,4.17,2c.93.54,2.24,2.08,3.52,2a2,2,0,0,0,1.46-.88,2.63,2.63,0,0,1,1.23-1.09c1.27-.45,2.91.22,4.26,0,1.1-.15,2.11-.68,3.2-.91,1.32-.29,2.68-.5,4-.69l7.32,4a2,2,0,0,0,.37.11l30.93,4.91a1.48,1.48,0,0,1,.81.4l17,18.57a.66.66,0,0,1,.14.2c1,1.82,13.49,11.75,12.52,16.55s0,21,0,21.57v0c-.08,4.46-5.81,22.25.64,25.7a3.92,3.92,0,0,0,2.71.25c11-2.68,24-1.39,35.51-1.42.63,0,1.34,0,1.59-.6a1,1,0,0,0,0-.76c-1.94-5-3.45-7.1-8.14-10.48-3.76-2.72-9.45-6.94-10.86-10.81-2.93-8-.16-15.16.13-23.11a19.66,19.66,0,0,1,.25-3.18,12.55,12.55,0,0,1-.86-3.22c-1.31-6.36,13.45-17.73,17-23.23a1.25,1.25,0,0,1,.79-.51l4.56-3.79,17.52-2.62c.19,0,4.5-2.16,4.64-2.25l11.27-6c1.26.85,2,2.32,3.67,2.45a5,5,0,0,0,2.84-.91c2.53-1.47,5.87-2.89,8-4.66,1.58-1.31,2.4-3,5.47-2.72a3,3,0,0,1,1.36.42,3.39,3.39,0,0,1,.92,1.19c1.18,1.79,4,2.63,6.33,3.61a3.09,3.09,0,0,0,.69.22,3.24,3.24,0,0,0,1-.08,18.48,18.48,0,0,1,4.93-.22c1.55.14,2.17.78,3.46,1.36,1.73.79,4.85,1.75,6.22.07a3,3,0,0,0,.53-1.46c.19-1.06.63-2,.9-3A6.35,6.35,0,0,0,238.4,70.82ZM10,67.4a1.12,1.12,0,0,1,.5-.65A6.68,6.68,0,0,1,10,67.4ZM173.66,48.65c-1.37,4.65,8.13,4.43,7.84,7.93-3.42,2.07,1.83,2.87,3.82,3.83,4.18,1.84-2.68,2.62-3.13,4.14-4.94-.26-5.58-6.21-11.62-5.22-4.6-.07-9.22-.17-13,2-2.77.55-2.74-2.65-5.36-.9-4.87,2-8.53-3.87-3.32-5.95C160.56,52.84,164.9,58.86,173.66,48.65Zm-18.07-3.78c1.17,4.58-16.53,8.39-16.17,3.82C138.69,44.49,153.22,40.89,155.59,44.87ZM145.32,66.82c2.32,2.59,14.19.52,10.27,4.9-2.6,2.11-4.53-1.79-7.19-.72-2.48,1.6-5.43-2.12-8.09-.83-1.84,1.16-.9-.6-1.64-1.4C141.05,68.41,142.1,65.85,145.32,66.82ZM110.93,32.69c4.22-2.56,22.65.44,18.11,5.77-6.89,1.58-14.35-1.24-21.38-1.84C104.27,37.59,110.34,34.22,110.93,32.69Zm-8.88-.93c-6.14,5.15-4,6.13-13.55,1.47C92.89,32.67,102,27.33,102.05,31.76ZM40,59.07c3.51-2.22,14,.3,12.65,1.87-5.35,0-9.82,2.83-15,3.79C43,62.65,40,62.28,40,59.07ZM78.56,82.25c-5.29-.72-8.55-1.81-12.16-2.56-2.06-.38-10.73-1.59-11.31-1.86l-.07,0-2.65-1.46c4.25-.59,8.84-1.43,11.9-3.7l15.22,7.88C80.7,81.08,80,82.44,78.56,82.25Zm10.19,2.36L65.85,71.18c.82-1,1.91-2.17,3.37-1.85A3,3,0,0,1,71,70.8c2.66,3.65,8.92,5.63,14.43,4.73l5.1,8.15C91,84.47,89.64,85.2,88.75,84.61Zm18.32,18.84L92.27,81.24l-.07-.16-3.53-6.44c2.8-1,5.4-2.43,8.48-2.61a29.16,29.16,0,0,1,6.25.66,45.94,45.94,0,0,0,14.57-.1c2.5-.43,5-1.06,7.56-1.28-1.91,1.17-3.5,2.16-3.86,2.37L107.43,82c-1.91,1.11-2.81,2.9-2.33,4.64l4.42,16.25C109.81,104,107.74,104.45,107.07,103.45Zm16.37-16.94-3.84,20.21c-.22,1.12-2.47,1.07-2.58-.06L110.26,85.3c-2-1.94,5-5.08,5.15-5.24l8.06-5.1s2.27-1.79,4.66-3.7c.51,0,1,.09,1.52.18a13.39,13.39,0,0,1,4.7,2c.69.46,1.31,1,2,1.4a7.39,7.39,0,0,0,1.17.55L123.77,86A.83.83,0,0,0,123.44,86.51Zm11,11.52c-4.18,1.54-8-3.25-7.73-3.74l.34-2.48a14.68,14.68,0,0,1,5.1-8.9L141,75.14l.29,0c1.17-.18,2.37-1.44,3.6-.8,1.57.82.61,2.59,2.18,3.66a9,9,0,0,0,3.78,1.34,10.52,10.52,0,0,0,1.21.08l-7.78,8.53C143.81,88.38,138.94,96.39,134.48,98Zm41.24-15c-.13.06-3.22.76-3.37.78l-15,2.31a1.44,1.44,0,0,0-.7.3L151,91.05c-1,.85-2.88-.11-2.11-1.1L159.6,76.26a4.7,4.7,0,0,1,1.21-.73c2.13-.81,6.15-.76,8.44-.37a18.75,18.75,0,0,0,2,.32,2.83,2.83,0,0,0,1.87-.43,7.22,7.22,0,0,0,1.06-1.53,8.28,8.28,0,0,0,1.1-1.71,4.38,4.38,0,0,1,.63-1.33,1.81,1.81,0,0,1,1.61-.6,2,2,0,0,1,1.21.84l1.13,1.33a12.53,12.53,0,0,0,2.94,2.64c1,.64,1.87,1.75,3.19,2.11a6,6,0,0,0,2,.12Z"/><path class="cls-1" d="M71.4,146.61c.15.21.1-.43,0,0Z"/><path class="cls-1" d="M278,77.54h-1.15a75.22,75.22,0,1,1-22-53.21,75,75,0,0,1,22,53.21h2.3a77.54,77.54,0,1,0-77.53,77.53,77.53,77.53,0,0,0,77.53-77.53Z"/><path class="cls-1" d="M413.18,86.41a3.54,3.54,0,0,0,2.2,1.19V89q-5.19-.21-13.1-.22-8.22,0-12.1.22V87.6a11.56,11.56,0,0,0,3.89-.68A1.93,1.93,0,0,0,395.22,85a10.06,10.06,0,0,0-.86-3.46l-4.25-11.81H375.56L374.34,73c-1.58,4.08-2.38,7.2-2.38,9.36,0,2,.56,3.32,1.66,4a9.91,9.91,0,0,0,4.9,1.22V89c-3.6-.14-6.75-.22-9.44-.22-2.25,0-4.1.08-5.54.22V87.6a5.61,5.61,0,0,0,3.38-2.23,24,24,0,0,0,3.25-6.19l16-41.12c1.53.1,2.81.15,3.81.15s2.21-.05,3.75-.15L411.13,83A10.43,10.43,0,0,0,413.18,86.41ZM389.6,68.3l-6.55-18-6.91,18Z"/><path class="cls-1" d="M455.2,50.16a49.06,49.06,0,0,0,.21,5.18h-1.65q-1.74-8.34-5.3-12a10.87,10.87,0,0,0-7.95-3.64h-.94a9.29,9.29,0,0,0-2.84.32,2,2,0,0,0-1.23,1.23,9.93,9.93,0,0,0-.32,3V62.69h.72a8.33,8.33,0,0,0,6.41-2.95,13.76,13.76,0,0,0,3.38-6.56h1.66q-.23,3-.22,6.77v3.46c0,2.45.15,5.85.43,10.22h-1.65a12,12,0,0,0-3.35-6.8,9,9,0,0,0-6.66-2.7h-.72V80.69a11.5,11.5,0,0,0,.61,4.39A3.32,3.32,0,0,0,438,86.92a20.53,20.53,0,0,0,5.15.46V89q-9.72-.21-14.83-.22-3.39,0-9.43.15l-3.46.07V87.6A11.36,11.36,0,0,0,418.8,87a2.38,2.38,0,0,0,1.4-1.65,15.52,15.52,0,0,0,.36-4V45.7a14.27,14.27,0,0,0-.39-4,2.53,2.53,0,0,0-1.41-1.66,10.85,10.85,0,0,0-3.31-.58V38.06q8.35.22,25.2.22,10.59,0,15.05-.22Q455.19,44.84,455.2,50.16Z"/><path class="cls-1" d="M510.92,86.16a12,12,0,0,1-4.75,3,19,19,0,0,1-6.05.87q-5,0-7.7-1.77c-1.83-1.17-2.95-3.18-3.38-6L488,75.07a26.93,26.93,0,0,0-2-7.63,4,4,0,0,0-3.78-2.59H479V81.41a14.37,14.37,0,0,0,.39,4A2.51,2.51,0,0,0,480.76,87a10.85,10.85,0,0,0,3.31.58V89c-2.79-.14-6.79-.22-12-.22-5.8,0-10.08.08-12.81.22V87.6a11.43,11.43,0,0,0,3.35-.58,2.4,2.4,0,0,0,1.4-1.65,15.52,15.52,0,0,0,.36-4V45.7a13.81,13.81,0,0,0-.4-4,2.52,2.52,0,0,0-1.4-1.66,10.91,10.91,0,0,0-3.31-.58V38.06q4.09.22,12.38.22l8.28-.07c1-.05,2.07-.07,3.31-.07q10.95,0,16.31,3.09a10.18,10.18,0,0,1,5.37,9.43,12.23,12.23,0,0,1-4,9.22q-4,3.81-13.53,4.68,7.33.51,11.09,2.77A9.6,9.6,0,0,1,503,74l1.52,7.49a9.84,9.84,0,0,0,1.22,3.67,2.32,2.32,0,0,0,2,1,3,3,0,0,0,2.23-.94ZM480.36,40a2.66,2.66,0,0,0-1.12,1.8A19.63,19.63,0,0,0,479,45.7V63.41h1.94c3.41,0,5.73-1,7-3.13s1.88-5,1.88-8.82-.54-6.92-1.62-8.93a5.56,5.56,0,0,0-5.3-3A4.81,4.81,0,0,0,480.36,40Z"/><path class="cls-1" d="M536,39.5a11.36,11.36,0,0,0-3.35.58,2.39,2.39,0,0,0-1.4,1.66,15.41,15.41,0,0,0-.36,4V81.41a14.37,14.37,0,0,0,.39,4A2.51,2.51,0,0,0,532.67,87a10.85,10.85,0,0,0,3.31.58V89q-4.18-.21-12-.22-8.72,0-12.82.22V87.6a11.43,11.43,0,0,0,3.35-.58,2.4,2.4,0,0,0,1.4-1.65,15.52,15.52,0,0,0,.36-4V45.7a14.27,14.27,0,0,0-.39-4,2.56,2.56,0,0,0-1.41-1.66,10.91,10.91,0,0,0-3.31-.58V38.06q4.11.22,12.82.22,7.77,0,12-.22Z"/><path class="cls-1" d="M574.57,38.28a24.91,24.91,0,0,1,5.9,3.46,2.11,2.11,0,0,0,1.37.64c1,0,1.59-1.44,1.87-4.32h1.66q-.29,5.11-.29,18h-1.65A31.88,31.88,0,0,0,581.55,47a12.2,12.2,0,0,0-4.75-5.54,12.41,12.41,0,0,0-6.69-2.16q-7.5,0-10.52,7.2a44.41,44.41,0,0,0-3,17.21,44.39,44.39,0,0,0,3,17.2q3,7.2,10.52,7.2a12.41,12.41,0,0,0,6.69-2.16,11.22,11.22,0,0,0,4.75-5.61,36.93,36.93,0,0,0,1.88-10h1.65q0,13.47.29,18.72h-1.66a12.36,12.36,0,0,0-.61-3.28c-.26-.64-.64-1-1.11-1a3.13,3.13,0,0,0-1.52.58,30.07,30.07,0,0,1-6.19,3.49,19.13,19.13,0,0,1-7.13,1.19A31.09,31.09,0,0,1,552.9,87a22.42,22.42,0,0,1-9.51-9A27.63,27.63,0,0,1,540,64a28,28,0,0,1,3.46-14,24.27,24.27,0,0,1,9.64-9.5,28.93,28.93,0,0,1,14.12-3.38A19.51,19.51,0,0,1,574.57,38.28Z"/><path class="cls-1" d="M637.17,86.41a3.54,3.54,0,0,0,2.2,1.19V89q-5.19-.21-13.1-.22-8.22,0-12.1.22V87.6a11.56,11.56,0,0,0,3.89-.68A1.93,1.93,0,0,0,619.21,85a10.06,10.06,0,0,0-.86-3.46L614.1,69.74H599.55L598.33,73c-1.58,4.08-2.38,7.2-2.38,9.36,0,2,.55,3.32,1.66,4a9.91,9.91,0,0,0,4.9,1.22V89c-3.6-.14-6.75-.22-9.44-.22-2.25,0-4.1.08-5.54.22V87.6a5.61,5.61,0,0,0,3.38-2.23,23.75,23.75,0,0,0,3.24-6.19l16-41.12c1.53.1,2.81.15,3.81.15s2.21-.05,3.75-.15L635.12,83A10.43,10.43,0,0,0,637.17,86.41ZM613.59,68.3,607,50.3l-6.91,18Z"/><path class="cls-1" d="M688.4,39.5a7,7,0,0,0-3.31,1.55,5.65,5.65,0,0,0-1.44,3.21,42.82,42.82,0,0,0-.36,6.48V89a23.3,23.3,0,0,0-2.38-.14c-.53,0-1.41,0-2.66.14l-31.9-34.85V74.93a47,47,0,0,0,.44,7.67,5.17,5.17,0,0,0,1.9,3.42,11.57,11.57,0,0,0,4.94,1.58V89c-2-.14-4.66-.22-8.07-.22-2.54,0-4.53.08-6,.22V87.6a6.91,6.91,0,0,0,3.31-1.55,5.59,5.59,0,0,0,1.44-3.2,42.82,42.82,0,0,0,.36-6.48V45.7a13.81,13.81,0,0,0-.4-4,2.52,2.52,0,0,0-1.4-1.66,11,11,0,0,0-3.31-.58V38.06q2.16.22,6,.22t6.63-.22l29.44,31.11v-17a47.24,47.24,0,0,0-.43-7.67,5.18,5.18,0,0,0-1.91-3.42,11.45,11.45,0,0,0-4.93-1.59V38.06q3,.22,8.07.22,3.81,0,6-.22Z"/><path class="cls-1" d="M727.93,68.45V80.69a11.5,11.5,0,0,0,.61,4.39,3.32,3.32,0,0,0,2.23,1.84,20.53,20.53,0,0,0,5.15.46V89q-9.72-.21-14.83-.22-3.39,0-9.43.15L708.2,89V87.6a11.36,11.36,0,0,0,3.35-.58,2.4,2.4,0,0,0,1.4-1.65,15.52,15.52,0,0,0,.36-4V45.7a14.27,14.27,0,0,0-.39-4,2.56,2.56,0,0,0-1.41-1.66,10.85,10.85,0,0,0-3.31-.58V38.06q4.11.22,12.38.22l8.28-.07c1-.05,2.07-.07,3.32-.07q10.65,0,16.16,3.85a12,12,0,0,1,5.51,10.33,14.69,14.69,0,0,1-2.16,7.6A16.25,16.25,0,0,1,744.34,66q-5.18,2.44-13.75,2.45ZM729.33,40a2.62,2.62,0,0,0-1.11,1.8,18.74,18.74,0,0,0-.29,3.89V67h1.94q5,0,7-3.75t1.91-10.15c0-4.65-.53-8.09-1.59-10.29a5.46,5.46,0,0,0-5.32-3.32A4.82,4.82,0,0,0,729.33,40Z"/><path class="cls-1" d="M782,39.5a14.36,14.36,0,0,0-3.78.58,2.6,2.6,0,0,0-1.62,1.66,12.9,12.9,0,0,0-.43,4V82.85a10.58,10.58,0,0,0,.29,3,1.9,1.9,0,0,0,1,1.26,6.24,6.24,0,0,0,2.38.32h2.38q2.52,0,5.47-2.52A25.08,25.08,0,0,0,793,78.2a26.33,26.33,0,0,0,3.16-8.6h1.66q-.21,2.59-.21,6.62,0,7.78.5,12.82-4.9-.21-16.49-.22-16.85,0-25.2.22V87.6a11.36,11.36,0,0,0,3.35-.58,2.4,2.4,0,0,0,1.4-1.65,15.52,15.52,0,0,0,.36-4V45.7a14.27,14.27,0,0,0-.39-4,2.56,2.56,0,0,0-1.41-1.66,10.85,10.85,0,0,0-3.31-.58V38.06q4.11.22,12.82.22,8.28,0,12.74-.22Z"/><path class="cls-1" d="M847.63,86.41a3.5,3.5,0,0,0,2.19,1.19V89q-5.18-.21-13.1-.22-8.21,0-12.1.22V87.6a11.51,11.51,0,0,0,3.89-.68A1.93,1.93,0,0,0,829.66,85a9.83,9.83,0,0,0-.86-3.46l-4.25-11.81H810L808.78,73q-2.37,6.12-2.37,9.36c0,2,.55,3.32,1.65,4A9.94,9.94,0,0,0,813,87.6V89c-3.6-.14-6.74-.22-9.43-.22-2.26,0-4.11.08-5.55.22V87.6a5.66,5.66,0,0,0,3.39-2.23,24.37,24.37,0,0,0,3.24-6.19l16-41.12c1.54.1,2.81.15,3.82.15s2.21-.05,3.74-.15L845.58,83A10.1,10.1,0,0,0,847.63,86.41ZM824.05,68.3l-6.55-18-6.92,18Z"/><path class="cls-1" d="M874.74,39.5a11.3,11.3,0,0,0-3.35.58A2.41,2.41,0,0,0,870,41.74a15.41,15.41,0,0,0-.36,4V81.41a14.28,14.28,0,0,0,.4,4,2.5,2.5,0,0,0,1.4,1.65,11,11,0,0,0,3.32.58V89q-4.18-.21-12-.22-8.72,0-12.81.22V87.6a11.28,11.28,0,0,0,3.34-.58,2.39,2.39,0,0,0,1.41-1.65,15.52,15.52,0,0,0,.36-4V45.7a13.81,13.81,0,0,0-.4-4,2.52,2.52,0,0,0-1.4-1.66,10.91,10.91,0,0,0-3.31-.58V38.06q4.1.22,12.81.22c5.19,0,9.19-.07,12-.22Z"/><path class="cls-1" d="M927.73,39.5a6.91,6.91,0,0,0-3.31,1.55A5.66,5.66,0,0,0,923,44.26a43.1,43.1,0,0,0-.35,6.48V89a23.62,23.62,0,0,0-2.38-.14c-.53,0-1.42,0-2.66.14l-31.9-34.85V74.93a47.33,47.33,0,0,0,.43,7.67A5.18,5.18,0,0,0,888,86,11.51,11.51,0,0,0,893,87.6V89c-2-.14-4.66-.22-8.06-.22-2.55,0-4.54.08-6,.22V87.6a6.86,6.86,0,0,0,3.31-1.55,5.59,5.59,0,0,0,1.44-3.2,42.82,42.82,0,0,0,.36-6.48V45.7a14.27,14.27,0,0,0-.39-4,2.56,2.56,0,0,0-1.41-1.66,10.85,10.85,0,0,0-3.31-.58V38.06q2.16.22,6,.22t6.62-.22L921,69.17v-17a47.24,47.24,0,0,0-.43-7.67,5.22,5.22,0,0,0-1.91-3.42,11.55,11.55,0,0,0-4.93-1.59V38.06q2.94.22,8.06.22c2.54,0,4.54-.07,6-.22Z"/><path class="cls-1" d="M957.86,37.81a25,25,0,0,1,5,2.13l1.41.72a2.5,2.5,0,0,0,1,.28,1.12,1.12,0,0,0,1-.75,8.57,8.57,0,0,0,.57-2.41h1.66q-.36,5.17-.36,17.56h-1.66a24.18,24.18,0,0,0-1.87-7.84,16.22,16.22,0,0,0-4.32-6.12A9.32,9.32,0,0,0,954,39a7.82,7.82,0,0,0-5.33,1.76,6.2,6.2,0,0,0-2,4.94,8.08,8.08,0,0,0,1.08,4.24,13.72,13.72,0,0,0,3.17,3.5q2.08,1.68,6.84,5a5.9,5.9,0,0,1,.83.5l.75.58a64.36,64.36,0,0,1,6.34,4.86,17.53,17.53,0,0,1,3.85,4.93A13.76,13.76,0,0,1,971,75.79a12.06,12.06,0,0,1-2.63,7.89,15.73,15.73,0,0,1-7.09,4.78,29.28,29.28,0,0,1-9.87,1.59,31.08,31.08,0,0,1-7.3-.72,27.14,27.14,0,0,1-5.44-2,5.2,5.2,0,0,0-2.45-1,1.12,1.12,0,0,0-1,.75,8.57,8.57,0,0,0-.57,2.41H933q.28-4.89.29-20.88h1.66q.5,8.58,3.6,13.9a10.25,10.25,0,0,0,9.5,5.33,9.85,9.85,0,0,0,6.3-1.87,6.28,6.28,0,0,0,2.34-5.19,10.28,10.28,0,0,0-2.56-7,41,41,0,0,0-8-6.51,81.55,81.55,0,0,1-6.91-5,18.64,18.64,0,0,1-4.25-5,12.78,12.78,0,0,1-1.66-6.59,11.78,11.78,0,0,1,2.45-7.59,14.44,14.44,0,0,1,6.52-4.54,26,26,0,0,1,8.89-1.47A24.34,24.34,0,0,1,957.86,37.81Z"/><path class="cls-1" d="M363.54,132a17.34,17.34,0,0,1,1-5.8,16.39,16.39,0,0,1,3-5.16,15.38,15.38,0,0,1,4.82-3.71,14.43,14.43,0,0,1,6.51-1.43,13.33,13.33,0,0,1,7.37,2,12.31,12.31,0,0,1,4.55,5.09l-2.55,1.55a10,10,0,0,0-1.87-2.69A9.66,9.66,0,0,0,384,120a10,10,0,0,0-2.64-1,12.42,12.42,0,0,0-2.68-.29,10.77,10.77,0,0,0-5.14,1.18,11.92,11.92,0,0,0-3.76,3.09,13.48,13.48,0,0,0-2.29,4.3,15.5,15.5,0,0,0-.77,4.84,14.4,14.4,0,0,0,.93,5.14,14.68,14.68,0,0,0,2.54,4.35,12.52,12.52,0,0,0,3.82,3,10.52,10.52,0,0,0,4.8,1.11,11.9,11.9,0,0,0,2.8-.34,10.86,10.86,0,0,0,2.77-1.09,11.15,11.15,0,0,0,2.48-1.87,9.44,9.44,0,0,0,1.91-2.7l2.64,1.36a9.77,9.77,0,0,1-2.18,3.21,14.67,14.67,0,0,1-3.14,2.34,15.72,15.72,0,0,1-3.66,1.46,15.33,15.33,0,0,1-3.8.5,12.92,12.92,0,0,1-6.09-1.46,15.82,15.82,0,0,1-4.78-3.8,17.56,17.56,0,0,1-3.11-5.32A17,17,0,0,1,363.54,132Z"/><path class="cls-1" d="M409.71,148.58a13.64,13.64,0,0,1-6.17-1.39,15.38,15.38,0,0,1-4.8-3.68,16.85,16.85,0,0,1-3.09-5.25,17.29,17.29,0,0,1-1.09-6,17.12,17.12,0,0,1,4.37-11.42,15.45,15.45,0,0,1,4.82-3.61,13.53,13.53,0,0,1,6-1.35,13.25,13.25,0,0,1,6.16,1.44,15.31,15.31,0,0,1,4.78,3.75,17.47,17.47,0,0,1,3.07,5.25,17.13,17.13,0,0,1-3.25,17.38,15.35,15.35,0,0,1-4.8,3.59A13.66,13.66,0,0,1,409.71,148.58Zm-12-16.37a14.93,14.93,0,0,0,.87,5.07,13.73,13.73,0,0,0,2.45,4.32,12,12,0,0,0,3.78,3,11,11,0,0,0,9.82-.07,12,12,0,0,0,3.78-3.09,14.19,14.19,0,0,0,2.38-4.32,14.75,14.75,0,0,0,0-10,13.87,13.87,0,0,0-2.48-4.3,12.26,12.26,0,0,0-3.77-3,11.1,11.1,0,0,0-9.78,0A11.65,11.65,0,0,0,401,123a14.43,14.43,0,0,0-2.39,4.32A14.78,14.78,0,0,0,397.74,132.21Z"/><path class="cls-1" d="M434.13,122v26.38H431V116.06h2.46l21.37,26.88V116.11H458v32.24h-2.73Z"/><path class="cls-1" d="M485.11,122.11a9.85,9.85,0,0,0-3.66-2.5,13.26,13.26,0,0,0-5.16-1q-4.32,0-6.28,1.62a5.4,5.4,0,0,0-1.95,4.39,4.84,4.84,0,0,0,.52,2.39,4.52,4.52,0,0,0,1.64,1.61,11.34,11.34,0,0,0,2.82,1.18c1.14.34,2.48.67,4,1a47.47,47.47,0,0,1,4.64,1.21,12.94,12.94,0,0,1,3.5,1.68,7,7,0,0,1,2.23,2.5,7.8,7.8,0,0,1,.78,3.66,8.13,8.13,0,0,1-.87,3.87,7.69,7.69,0,0,1-2.41,2.73,10.55,10.55,0,0,1-3.68,1.61,19.44,19.44,0,0,1-4.64.53,19,19,0,0,1-13-4.69l1.54-2.59a14.42,14.42,0,0,0,4.78,3.16,16.76,16.76,0,0,0,6.68,1.3,11.17,11.17,0,0,0,6.05-1.39,4.64,4.64,0,0,0,2.19-4.21,4.8,4.8,0,0,0-.62-2.52,5.31,5.31,0,0,0-1.84-1.77,12.43,12.43,0,0,0-3.07-1.3c-1.23-.36-2.65-.73-4.25-1.09s-3.19-.81-4.46-1.23a12,12,0,0,1-3.21-1.59,6.29,6.29,0,0,1-1.95-2.3,7.41,7.41,0,0,1-.66-3.3,9.12,9.12,0,0,1,.84-4,8,8,0,0,1,2.37-2.91,11,11,0,0,1,3.63-1.77,16.7,16.7,0,0,1,4.67-.62,15.7,15.7,0,0,1,5.7,1,15.31,15.31,0,0,1,4.57,2.75Z"/><path class="cls-1" d="M515.68,145.53v2.82H494V116.06h21.29v2.82H497.12v11.65H513v2.68H497.12v12.32Z"/><path class="cls-1" d="M521.86,148.35V116.06h13.6a8.57,8.57,0,0,1,3.87.89,9.83,9.83,0,0,1,3,2.32,10.59,10.59,0,0,1,2,3.25,10.11,10.11,0,0,1,.71,3.68,10.84,10.84,0,0,1-.53,3.39,10,10,0,0,1-1.47,2.91,9.12,9.12,0,0,1-2.28,2.19,7.92,7.92,0,0,1-2.95,1.2l8,12.46h-3.6l-7.64-11.91H525v11.91ZM525,133.62h10.6a5.42,5.42,0,0,0,2.57-.62,6.19,6.19,0,0,0,2-1.66,8,8,0,0,0,1.27-2.36,8.53,8.53,0,0,0,.45-2.78,7.55,7.55,0,0,0-.52-2.79,7.78,7.78,0,0,0-1.41-2.35,6.94,6.94,0,0,0-2.09-1.59,5.73,5.73,0,0,0-2.53-.59H525Z"/><path class="cls-1" d="M550.74,116.06,562.3,144.4l11.46-28.34h3.36l-13.46,32.29h-2.77l-13.47-32.29Z"/><path class="cls-1" d="M575.85,148.35l13.51-32.29H592l13.51,32.29h-3.41l-4.19-10.09H583.35l-4.14,10.09Zm14.83-28.56-6.64,16h13.09Z"/><path class="cls-1" d="M629.88,118.88H618.37v29.47h-3.18V118.88H603.68v-2.82h26.2Z"/><path class="cls-1" d="M634.84,148.35V116.11H638v32.24Z"/><path class="cls-1" d="M659.26,148.58a13.6,13.6,0,0,1-6.16-1.39,15.16,15.16,0,0,1-4.8-3.68,16.85,16.85,0,0,1-3.09-5.25,17.29,17.29,0,0,1-1.09-6,16.68,16.68,0,0,1,1.16-6.19,17.11,17.11,0,0,1,3.2-5.23,15.57,15.57,0,0,1,4.82-3.61,13.54,13.54,0,0,1,6-1.35,13.25,13.25,0,0,1,6.16,1.44,15.27,15.27,0,0,1,4.77,3.75,17.49,17.49,0,0,1,3.08,5.25,17.22,17.22,0,0,1,1.09,6,16.84,16.84,0,0,1-1.16,6.19,17.14,17.14,0,0,1-3.19,5.21,15.35,15.35,0,0,1-4.8,3.59A13.63,13.63,0,0,1,659.26,148.58Zm-12-16.37a15.17,15.17,0,0,0,.86,5.07,14,14,0,0,0,2.46,4.32,12,12,0,0,0,3.78,3,11,11,0,0,0,9.82-.07,12,12,0,0,0,3.77-3.09,14.22,14.22,0,0,0,2.39-4.32,14.91,14.91,0,0,0,0-10,14.07,14.07,0,0,0-2.48-4.3,12.18,12.18,0,0,0-3.78-3,11.1,11.1,0,0,0-9.78,0,11.72,11.72,0,0,0-3.77,3.07,14.22,14.22,0,0,0-2.39,4.32A14.78,14.78,0,0,0,647.3,132.21Z"/><path class="cls-1" d="M683.69,122v26.38h-3.14V116.06H683l21.38,26.88V116.11h3.14v32.24h-2.73Z"/><path class="cls-1" d="M749.09,118.88H737.58v29.47H734.4V118.88H722.89v-2.82h26.2Z"/><path class="cls-1" d="M754.05,148.35V116.06h13.59a8.53,8.53,0,0,1,3.87.89,10,10,0,0,1,3,2.32,10.59,10.59,0,0,1,2,3.25,10.1,10.1,0,0,1,.7,3.68,10.83,10.83,0,0,1-.52,3.39,10,10,0,0,1-1.48,2.91,9.08,9.08,0,0,1-2.27,2.19,8,8,0,0,1-3,1.2l8,12.46h-3.59l-7.65-11.91h-9.55v11.91Zm3.13-14.73h10.6a5.39,5.39,0,0,0,2.57-.62,6.19,6.19,0,0,0,2-1.66A7.78,7.78,0,0,0,773.6,129a8.27,8.27,0,0,0,.46-2.78,8,8,0,0,0-1.94-5.14,6.82,6.82,0,0,0-2.09-1.59,5.69,5.69,0,0,0-2.52-.59H757.18Z"/><path class="cls-1" d="M797,145.72a10.11,10.11,0,0,0,5.07-1.16,9.19,9.19,0,0,0,3.23-3.05,12.47,12.47,0,0,0,1.68-4.3,24.87,24.87,0,0,0,.48-4.86V116.06h3.19v16.29a25.88,25.88,0,0,1-.73,6.2,14.82,14.82,0,0,1-2.35,5.17,11.54,11.54,0,0,1-4.2,3.54,13.83,13.83,0,0,1-6.32,1.32,13.51,13.51,0,0,1-6.46-1.39,11.72,11.72,0,0,1-4.19-3.66,14.71,14.71,0,0,1-2.27-5.18,25.91,25.91,0,0,1-.68-6V116.06h3.14v16.29a23.82,23.82,0,0,0,.5,5,12.51,12.51,0,0,0,1.7,4.28,9.08,9.08,0,0,0,3.21,3A10,10,0,0,0,797,145.72Z"/><path class="cls-1" d="M837.23,122.11a9.85,9.85,0,0,0-3.66-2.5,13.26,13.26,0,0,0-5.16-1c-2.88,0-5,.54-6.28,1.62a5.4,5.4,0,0,0-2,4.39,4.84,4.84,0,0,0,.52,2.39,4.45,4.45,0,0,0,1.64,1.61,11.34,11.34,0,0,0,2.82,1.18c1.13.34,2.47.67,4,1,1.73.37,3.27.77,4.64,1.21a13.09,13.09,0,0,1,3.5,1.68,7.08,7.08,0,0,1,2.23,2.5,7.8,7.8,0,0,1,.77,3.66,8.13,8.13,0,0,1-.86,3.87,7.79,7.79,0,0,1-2.41,2.73,10.52,10.52,0,0,1-3.69,1.61,19.35,19.35,0,0,1-4.63.53,19,19,0,0,1-13-4.69l1.55-2.59a14.22,14.22,0,0,0,4.78,3.16,16.76,16.76,0,0,0,6.68,1.3,11.2,11.2,0,0,0,6.05-1.39,4.63,4.63,0,0,0,2.18-4.21,4.8,4.8,0,0,0-.61-2.52,5.31,5.31,0,0,0-1.84-1.77,12.43,12.43,0,0,0-3.07-1.3c-1.23-.36-2.65-.73-4.25-1.09s-3.19-.81-4.46-1.23a11.87,11.87,0,0,1-3.21-1.59,6.2,6.2,0,0,1-1.95-2.3,7.41,7.41,0,0,1-.66-3.3,9.12,9.12,0,0,1,.84-4,8.06,8.06,0,0,1,2.36-2.91,11.13,11.13,0,0,1,3.64-1.77,16.63,16.63,0,0,1,4.66-.62,15.75,15.75,0,0,1,5.71,1,15.43,15.43,0,0,1,4.57,2.75Z"/><path class="cls-1" d="M868.71,118.88H857.2v29.47H854V118.88h-11.5v-2.82h26.2Z"/></g></g></svg>